<svg xmlns="http://www.w3.org/2000/svg" width="158" height="64" fill="none" viewBox="0 0 158 64"><g fill="#000" clip-path="url(#a)"><path d="M79 0C58.921 0 39.944 2.775 25.587 7.868 4.442 15.315 0 25.08 0 32c0 21.005 39.731 32 79 32s39.056-2.775 53.413-7.833C153.558 48.72 158 38.92 158 32.035 158 10.995 118.269 0 79 0m49.291 43.943c-13.007 4.566-30.42 7.095-49.042 7.095h-.259c-16.78-.001-11.362-.179-14.215-.506-13.154-.948-25.193-3.21-34.817-6.589-13.326-4.707-16.88-9.73-16.88-11.943s3.554-7.271 16.88-11.943c13.007-4.566 30.42-7.095 49.042-7.095h.259c16.78.002 11.362.179 14.215.506 13.154.948 25.192 3.21 34.817 6.59 13.326 4.706 16.88 9.729 16.88 11.942s-3.554 7.271-16.88 11.943"/><path d="M79.964 12.5c-18.926 0-36.624 2.564-49.844 7.296C16.576 24.6 13 29.765 13 32.076s3.612 7.477 17.156 12.28c13.22 4.696 30.918 7.297 49.844 7.297s36.624-2.601 49.844-7.296C143.388 39.517 147 34.352 147 32.077c0-2.276-3.612-7.477-17.156-12.281-13.256-4.732-30.954-7.296-49.88-7.296"/></g><defs><clipPath id="a"><path fill="#fff" d="M0 0h158v64H0z"/></clipPath></defs></svg>