<svg xmlns="http://www.w3.org/2000/svg" data-name="レイヤー 2" viewBox="0 0 444.6 182.2"><path d="M222.3 0C165.8 0 112.4 7.9 72 22.4 12.5 43.6 0 71.4 0 91.1c0 59.8 111.8 91.1 222.3 91.1s109.9-7.9 150.3-22.3c59.5-21.2 72-49.1 72-68.7C444.6 31.3 332.8 0 222.3 0M361 125.1c-36.6 13-85.6 20.2-138 20.2h-.73c-47.218-.005-31.97-.51-40-1.44-37.013-2.701-70.888-9.14-97.97-18.76-37.5-13.4-47.5-27.7-47.5-34s10-20.7 47.5-34c36.6-13 85.6-20.2 138-20.2h.73c47.218.005 31.97.51 40 1.44 37.013 2.701 70.888 9.14 97.97 18.76 37.5 13.4 47.5 27.7 47.5 34s-10 20.7-47.5 34" data-name="レイヤー 1"/></svg>