<svg xmlns="http://www.w3.org/2000/svg" width="1470" height="1475" fill="none" viewBox="0 0 1470 1475"><path fill="#ff9500" d="M718.618 998.817c6.224.311 8.714 5.293 8.403 10.423-.467 7-5.136 9.96-10.115 9.65-7.001-.47-7.935-6.22-8.246-7.47l5.001.3c.356 2.2 1.879 2.5 3.401 2.66 2.334 0 4.046-1.09 4.357-5.6.311-5.29-2.957-5.45-4.046-5.45s-2.8 0-3.578 2.33h3.111c0 .16-.155 3.89-.155 3.89l-8.091-.46.622-10.273h3.579v2.023c.623-.62 2.179-2.178 5.757-2.023m30.962 19.453c.155 0-4.62.3-4.667.31v-3.89h-.156l4.823-.31zm-61.304-14.78c.934-7.006 6.535-7.162 9.958-6.695 3.89.467 8.714 2.489 7.781 9.175l-1.557 11.52-5.29-.78 1.556-11.67c.311-2.8-2.178-3.58-3.112-3.73-1.089 0-3.734 0-4.046 2.8l-1.555 11.67-5.29-.78zm-13.69-10.585 5.135 12.605 2.178-11.049 5.134 1.09-4.045 18.669-5.134-1.09-5.135-12.6-2.178 11.05-5.135-1.09 4.046-18.674zm74.994 20.225-4.823.31-.622-14 4.823-.311zm11.047-15.246c2.334-.156 4.979.467 5.29 3.886.311 3.58-2.334 4.2-7.468 5.45-1.089.31-2.179.47-2.023 1.4 0 1.24 1.556 1.09 2.023 1.09 2.801-.31 2.8-.93 2.645-1.56l4.512-.46c0 1.55 0 4.82-6.846 5.44-3.268.31-6.846-.31-7.157-4.04l-.778-8.09c0-.47-.156-.94-.778-1.249v-.311l4.978-.466.157-.157c.311.467.466.935.466 1.553.778-.93 1.867-2.175 4.979-2.486m-46.832 13.846-.134-.01a2 2 0 0 1-.022-.14zm69.239-2.64-4.512.78-.155.15-.311-1.71c-.467.93-1.401 2.49-4.046 2.8-.624 0-5.134.78-5.912-4.67l-1.401-8.867 4.668-.778 1.244 7.785c.312 2.48 1.868 2.33 2.646 2.17 1.089-.15 2.49-.93 2.179-3.11l-1.246-7.623 4.668-.778zm-114.829-17.585-1.245 4.201-11.514 7.464 8.246 2.49-1.244 4.21-15.093-4.36 1.246-4.2 11.513-7.471v-.156l-8.869-2.645 1.245-4.2zm120.742 1.711c3.89-.934 8.091.778 9.18 5.601.934 4.353-1.4 8.093-5.757 9.023-6.846 1.4-8.558-4.35-9.336-6.69l10.114-2.176v-.157c-.622-2.8-2.645-2.645-3.579-2.334-1.555.311-1.867 1.245-2.022 1.867l-4.668 1.09c0-.778.311-1.556.933-2.645.467-.934 1.868-2.801 5.135-3.579m-28.009 9.024c0-.93-1.4-.93-1.867-.78-1.556 0-3.268 1.09-3.112 2.8v.63h.156c.622-.47.778-.47 2.334-.78 1.711-.47 2.645-.78 2.489-1.87m27.542.78h-.156c.311.47 1.09 2.02 3.268 1.55 2.023-.46 2.178-2.17 2.334-2.8zm32.519-4.203-4.045 1.243v.62l-.778-2.173c-.312 2.953-2.646 3.583-3.113 3.733-2.333.78-3.578-.93-4.044-1.56 0 .63-.623 2.81-3.113 3.58-2.022.63-4.667 0-5.757-4.04l-2.489-8.715 4.512-1.401 2.334 7.936c.311 1.089 1.09 1.867 2.023 1.556.934-.312 1.245-1.401.934-2.646l-2.334-7.779 4.512-1.401 2.334 7.936c.311 1.089.933 1.867 1.867 1.556 1.245-.312 1.245-1.712.933-2.801l-2.178-7.624 4.512-1.401zm-79.197-.622c-1.556 0-2.179.467-2.179 1.401h2.334l-.155.156v4.668h-4.823v-4.36c-.156-3.109 2.956-3.42 4.823-3.42zm-91.178-11.825-6.69 17.89-14.315-5.286 1.401-3.89 9.491 3.423 1.089-2.956-8.091-2.956 1.4-3.735 8.091 2.956 1.245-3.267-9.647-3.578v-.157l1.4-3.889zm193.867-3.423 10.737 8.246-5.447 2.49-5.757-4.824-.311 7.469-5.445 2.489 1.088-13.536-2.956-6.69.156-.156 4.979-2.178zm-19.447-.311c3.579-1.401 7.935-.623 9.803 4.356 1.867 4.979-.934 8.403-4.513 9.648-3.578 1.4-7.935.621-9.802-4.357-1.867-4.979.778-8.247 4.512-9.647m5.135 5.756c-.156-.623-1.401-3.422-3.89-2.489-2.334.934-1.556 3.579-1.089 4.668.311.934 1.556 3.579 3.89 2.646 2.178-.778 1.711-3.113 1.089-4.825m-214.098-16.803-3.268 6.38.311 13.536-5.29-2.801v-7.468c.156 0-5.757 4.357-5.757 4.357l-5.29-2.801 11.359-7.469 3.171-6.192zm6.071 12.759c.778-1.712 2.801-2.489 4.357-1.711 1.711.778 2.489 2.8 1.711 4.356-.778 1.711-2.801 2.489-4.357 1.711-1.711-.778-2.489-2.645-1.711-4.356m262.327-9.647-13.069 7.936-2.179-3.58 8.558-5.134-1.712-2.801-7.312 4.513-2.023-3.423 7.313-4.513-1.868-2.956-8.868 5.29-2.178-3.579 13.38-8.09zm-27.849.311c1.556-.778 3.733-.311 4.512 1.4.933 1.712.155 3.735-1.401 4.513-1.556.777-3.734.311-4.512-1.401-.933-1.711-.155-3.734 1.401-4.512m-266.065-9.802c2.645-4.512 7.003-4.513 10.27-2.49s5.446 5.757 2.645 10.269-7.157 4.512-10.424 2.489h.155c-3.267-2.022-5.446-5.756-2.646-10.268m301.381-13.537-1.4 13.692 7.002-4.978 2.489 3.578-12.758 9.024-2.49-3.578 1.4-13.692-7.624 5.29-2.489-3.579 13.381-9.335zM598.968 965.52c-2.178-1.244-3.734 1.09-4.357 2.024-.467.934-1.866 3.422.312 4.667l.155.156c2.023 1.245 3.579-.623 4.357-2.179.311-.467 1.867-3.267-.467-4.668m-18.516-15.713-4.668 6.845c-.622.934-.778 2.023 0 2.489.934.623 1.867 0 2.645-.933l4.668-6.691 3.889 2.646-4.668 6.846c-.622.933-.933 1.867 0 2.489 1.089.778 2.023 0 2.801-1.089l4.513-6.535 3.889 2.645-7.935 11.514-3.423-2.489-.467.155 1.245-1.867c-2.489 1.556-4.511.156-4.823 0-2.022-1.4-1.556-3.422-1.4-4.045-.623.311-2.645 1.4-4.823-.156-1.712-1.245-2.801-3.578-.467-7.001l5.134-7.469zm30.865 19.324-.06-.032.156-.155zm305.216-18.391-4.046 3.267-13.069-3.89 7.312 8.558-4.045 3.267-12.136-14.781 4.046-3.268 13.069 3.89-7.312-8.558 4.044-3.266zM564.27 939.382c1.089-.156 3.422-.312 5.912 1.866 3.111 2.489 4.357 6.847 1.245 10.581-2.801 3.423-7.157 4.045-10.58 1.089-5.446-4.357-1.868-9.491-.623-11.514l8.09 6.535c1.712-2.178.312-3.734-.31-4.201-1.245-.933-2.023-.622-2.646-.467l-3.734-2.957c.778-.466 1.401-.777 2.646-.932m-2.179 7.312c-.156.467-.778 2.178.778 3.423 1.556 1.4 3.112.311 3.579 0l-4.357-3.578zm357.243 1.556-.155-.155.004-.005zm-7.002-20.383c2.956-2.801 7.468-5.134 11.98-.31l7.936 8.401-3.89 3.579-8.09-8.558c-1.868-2.022-4.202-.622-4.98 0-.778.779-2.333 2.956-.31 4.979l8.09 8.558-3.885 3.574-7.785-8.242c-4.822-5.135-1.555-9.492.934-11.981m-356.152 1.712-5.29 5.757c-1.712 1.867-.623 2.956 0 3.423.778.778 2.333 1.244 3.733-.156l5.291-5.756 3.423 3.111-9.491 10.269-3.348-3.044 1.014-1.157c-1.089.156-2.801.467-4.824-1.4-.466-.467-3.733-3.423 0-7.468l6.069-6.69zm-5.682 13.604-.075.088v-.156zm-9.258-28.23c.001-.146 3.024 3.006 3.388 3.386-.164.545-.452.846-.742 1.282 1.244 0 2.956 0 4.978 2.334 1.712 1.711 2.801 4.201.157 6.69-2.49 2.49-4.669.778-8.87-2.489-.933-.622-1.711-1.401-2.334-.778-.933.933 0 1.867.467 2.334 2.023 2.022 2.489 1.555 2.956 1.089l3.268 3.267c-1.245.934-3.735 2.957-8.558-2.022-2.334-2.334-4.045-5.446-1.4-8.091l5.913-5.602c.311-.311.622-.778.467-1.4zm385.251-1.711c4.201-4.668 9.491-3.579 13.381 0 5.134 4.668 4.513 10.269 1.245 14.003-4.667 5.134-9.801 2.335-11.047 1.712l3.423-3.891h.155c2.023 1.245 3.268 0 4.357-.933 1.556-1.712 1.556-3.89-1.711-6.846-3.89-3.579-6.069-1.09-6.847-.312s-1.711 2.024-.467 4.358l2.024-2.334 2.8 2.489-5.446 6.069-7.624-7.002 2.334-2.646 1.401 1.09c0-.934-.311-3.112 2.022-5.757m-397.542 10.424-2.956 2.645-3.112-3.579 2.956-2.644zm16.181-.777c-1.089-1.089-2.8-1.868-4.2-.623l-.467.466c.778.311.778.312 2.178 1.245 1.4 1.089 2.178 1.556 2.956.934s-.156-1.711-.467-2.022m-4.822-9.336-10.425 9.179-3.112-3.578 10.424-9.18zm4.355 4.823-.035-.037q.018-.058.035-.118zm-12.445-13.536c2.489-2.023 4.512.31 5.757 1.711l-1.245 1.09c-1.089-1.245-1.712-1.401-2.49-.934l1.557 1.711h-.312l-3.578 2.956-3.112-3.733zm429.281-3.735-2.801 3.89-3.112-2.334 2.801-3.89zM517.747 885.08l-1.4 1.244c.933 0 3.112.312 5.134 3.268 3.579 5.134 1.4 10.114-2.957 13.07-5.756 4.045-11.047 2.178-13.847-1.867-4.046-5.757-.155-10.114.778-11.203l2.956 4.201h.312c-1.556 1.711-.934 3.112 0 4.356 1.4 1.867 3.423 2.49 7.157 0 4.356-2.956 2.333-5.757 1.711-6.535s-1.556-2.178-4.2-1.4l1.711 2.49-3.112 2.178-4.668-6.691 8.402-5.912zm423.057 9.802c-.934 1.4-.934 2.023-.312 2.645l1.401-1.867v.155l3.734 2.801-2.956 3.89-3.423-2.645c-2.489-1.867-.779-4.513.311-5.913zm16.494 3.111-2.801 3.89-11.358-8.246 2.8-3.89zm-5.136-18.359c1.245-2.023 3.424-3.579 6.38-1.712 2.956 2.022 1.867 4.513-.467 9.18-.467.934-.933 2.023-.155 2.49 1.089.622 1.866-.467 2.178-.934 1.556-2.334.934-2.645.311-3.112l2.489-3.89c1.09.934 3.735 3.113 0 8.714-1.867 2.801-4.512 5.134-7.624 3.111l-6.845-4.511c-.467-.311-.934-.467-1.401-.157h-.311c.004-.161 2.801-4.356 2.801-4.356v.156c.622 0 .933.156 1.555.467-.311-1.089-.622-2.957 1.089-5.446m-453.085-10.737c6.068-3.578 9.647.623 11.514 3.579 2.023 3.423 3.423 8.403-2.334 11.826l-9.958 5.912-2.645-4.512 10.114-6.068c2.489-1.401 1.4-4.045.933-4.824-.467-.933-2.334-2.8-4.668-1.4l-10.113 6.068-2.646-4.512-.155-.156zm456.819 13.382c-.777-.467-1.556.467-1.867.934-.777 1.244-1.244 3.111.312 4.2l.467.311h.155c0-.777.156-.933.778-2.333.623-1.556 1.089-2.489.155-3.112m18.984-12.603-2.23 3.863-1.504-.751c.311.934 1.089 2.645-.311 4.978-.311.467-2.49 4.513-7.314 1.712l-7.779-4.512 2.334-4.045 6.691 3.889c2.178 1.245 2.956 0 3.422-.623.623-.933.778-2.489-1.088-3.578l-6.691-3.889 2.334-4.046zm-2.178 3.889-.156.156.104-.182zm-473.78-21.938-6.691 11.825 9.958-5.135 2.334 4.668-17.115 8.558-2.334-4.668 6.691-11.825-9.958 5.134-2.334-4.668 17.115-8.557zm467.243 3.112c1.867-3.578 5.601-5.757 10.113-3.579 3.89 2.023 5.446 6.069 3.423 10.114-3.112 6.224-8.868 3.89-11.047 3.112l4.668-9.336c-2.489-1.245-3.734.467-4.046 1.245-.622 1.4-.155 2.178.157 2.801l-2.179 4.201c-.622-.623-1.089-1.245-1.556-2.334-.311-.934-1.089-3.268.467-6.224m7.468 6.691c.622 0 2.334.311 3.267-1.556.934-1.867-.31-3.113-.777-3.424zm-477.669-15.872-4.045 1.712-13.07-4.356 3.267 7.935-4.046 1.711-5.912-14.469 4.046-1.712 12.914 4.356h.155l-3.579-8.557 4.046-1.711zm494.942-11.824-1.514 3.785-1.753-.673c2.022 2.178 1.245 4.356.933 4.823-.933 2.334-2.956 2.179-3.734 2.179.467.466 1.867 2.178.778 4.823-.778 1.867-2.956 3.578-6.69 2.022l-8.403-3.423 1.712-4.356 7.624 3.111c1.089.467 2.023.312 2.49-.622.466-.933-.312-1.867-1.556-2.334l-7.469-3.111 1.711-4.357 7.624 3.112c1.089.467 2.024.467 2.49-.467.467-1.245-.467-2.023-1.556-2.489l-7.313-2.956 1.712-4.357zm-1.245 3.89h-.31l.041-.105zm-500.386-8.869-18.204 6.068-4.823-14.471 4.046-1.4 3.111 9.491 3.113-.933-2.646-8.091 3.734-1.244 2.645 8.091 3.268-1.089-3.268-9.803 4.046-1.4zm491.205-8.869c1.245-3.579 4.357-6.535 9.492-4.979 5.134 1.712 5.913 5.913 4.824 9.491v.156c-1.245 3.734-4.512 6.534-9.491 4.823-4.979-1.556-5.914-5.913-4.825-9.491m7.936-.311c-.623-.156-3.578-1.089-4.356 1.4-.778 2.334 1.867 3.424 2.8 3.735.934.311 3.734 1.088 4.512-1.401v.156c.778-2.179-1.4-3.268-2.956-3.89m16.184-12.137-7.314 1.401 5.604 4.823-1.56 5.758-9.801-9.336-6.964-1.858 1.363-5.144 7.002 1.867 13.22-3.267zm-531.82-2.022c1.867-.467 3.578.622 4.045 2.334.467 1.711-.622 3.578-2.333 4.045-1.867.467-3.579-.623-4.046-2.334-.466-1.712.623-3.578 2.334-4.045m511.785 2.81-.038.146v-.155zm-513.651-19.459 7.007-1.372 1.084 5.417-7.157 1.401-10.425 8.714-1.089-5.913 5.912-4.512-7.157-1.867-1.089-5.913zm523.568 1.868c.312-1.712 2.179-2.957 3.89-2.646 1.868.311 2.958 2.179 2.648 3.891-.31 1.711-2.025 2.955-3.892 2.644s-2.957-2.178-2.646-3.889m-516.561-3.24-.005-.028h.155zm-9.963-18.699c5.29-.778 7.935 2.646 8.401 6.535.467 3.734-1.089 7.78-6.379 8.558s-7.935-2.801-8.402-6.535c-.467-3.89 1.09-7.78 6.38-8.558m543.482-.156-2.02 15.249-4.2-.623 1.24-9.958-3.11-.467-1.09 8.558-4.043-.467 1.09-8.558-3.424-.467-1.4 10.27.156.155-4.202-.622 2.023-15.559zm-538.659 7.158c-.311-2.489-3.112-2.334-4.201-2.179-1.089 0-3.89.779-3.423 3.113v.155c.311 2.334 2.801 2.333 4.357 2.178.622 0 3.734-.622 3.267-3.267m.935-24.584-8.246.467c-1.245 0-2.023.622-2.023 1.556 0 1.089 1.09 1.556 2.334 1.4l8.091-.467.311 4.668-8.246.467c-1.089 0-2.023.467-2.023 1.556 0 1.244 1.4 1.556 2.489 1.556l7.936-.467.31 4.667-14.003.934-.311-4.2.156.155 2.178-.311c-2.8-.934-2.956-3.423-2.956-3.89-.156-2.489 1.711-3.267 2.334-3.578-.622-.311-2.645-1.246-2.801-3.891 0-2.022 1.09-4.511 5.135-4.667l9.024-.623zm524.501-2.645 9.803 9.646.62-8.558 4.36.312-.93 15.56-4.36-.312-9.804-9.646h-.156l-.622 9.335-4.357-.311 1.089-16.337zm14.623-14.782-11.04 7.781 11.2-.312v5.135l-18.983.31v-5.133h-.156l11.199-7.781-11.199.312v-5.135l18.979-.31zm-545.039 6.843c2.657-.073 2.957-2.037 2.957-2.953 0-1.555-.778-2.022-1.401-2.333v-4.824c.934.311 1.556.623 2.333 1.4.778.778 2.334 2.49 2.334 5.757 0 4.045-2.644 7.624-7.467 7.624-4.357 0-7.469-3.112-7.469-7.624 0-7.001 6.223-7.312 8.713-7.468zm-3.268-5.58c-.609.11-2.036.803-2.178 2.783.001 2.022 1.711 2.645 2.178 2.801zm1.09-20.867 9.024.622-.31 4.668-7.78-.467c-2.489-.155-2.645 1.244-2.8 2.178 0 1.089.466 2.645 2.489 2.801l7.779.466-.311 4.668-14.003-.933.311-4.668v.156h1.711c-.778-.622-2.022-1.867-1.867-4.668 0-.622.312-5.134 5.757-4.823m546.127-1.867-11.819.933c-2.801.311-3.113 2.956-2.957 3.89 0 1.089.778 3.578 3.576 3.423l11.83-.934.46 5.29h-.15l-11.52.934c-6.997.622-8.397-4.823-8.708-8.246-.311-4.046.622-9.024 7.312-9.647l11.516-.933zm-550.171-8.246c.467-3.268 1.711-6.535 5.445-6.069l8.091 1.089c.467 0 1.089 0 1.401-.467h.311l-.622 4.98h-.156c-.622.311-.934.311-1.556.155.778.934 1.712 2.334 1.401 5.29-.312 2.334-1.556 4.823-4.979 4.357-3.579-.467-3.579-3.267-3.579-8.402 0-1.089 0-2.178-.934-2.334-1.244-.155-1.4 1.245-1.4 1.867-.311 2.8.311 2.801 1.089 2.956l-.622 4.512c-1.401-.311-4.668-1.089-3.89-7.934m8.306-.779c.25.652.252.887.252 2.334 0 1.712.156 2.801 1.245 2.956.933 0 1.088-1.244 1.244-1.711.156-1.555-.311-3.423-2.178-3.579zm528.335-16.026c6.85-1.089 10.89 2.957 11.67 7.78 1.09 7.002-4.36 9.18-5.6 9.647l-.78-5.135v-.311c2.18-.778 2.18-2.49 1.87-3.89-.31-2.334-2.03-3.734-6.382-2.956-5.134.778-4.667 4.045-4.512 5.134s.467 2.646 3.112 3.113l-.467-3.113 3.739-.622 1.24 8.091-10.269 1.711-.622-3.423 1.711-.467c-.778-.466-2.645-1.712-3.112-5.134-.933-6.224 3.267-9.647 8.402-10.425m-520.459 5.29-.779 4.668-13.692-2.334.778-4.668zm-15.093-2.489-.778 4.668-3.89-.622.778-4.668zm15.872-4.668c3.112.622 2.645 3.734 2.334 5.446l-1.556-.312c.311-1.555 0-2.178-.933-2.489l-.467 2.334v-.155l-4.668-.934.934-4.823zm513.143-7.157-4.202 1.089c-3.111.778-3.889-2.178-4.356-4.046l1.556-.31c.466 1.556.933 2.023 1.867 1.867l-.622-2.179v-.155l4.511-1.089zm-517.5-22.716-1.401 4.978-.156-.155c-2.334-.156-2.956 1.245-3.423 2.801-.622 2.334.312 4.2 4.513 5.445 4.978 1.4 5.912-1.711 6.223-2.645.312-1.089.622-2.645-1.556-4.045l-.934 2.956-3.578-1.089 2.334-7.78 9.958 2.801-.934 3.423-1.711-.311c.466.778 1.556 2.645.623 6.068-1.712 5.912-7.003 7.312-11.982 5.912-6.69-1.867-8.557-7.313-7.157-11.98 2.023-6.691 7.78-6.379 9.181-6.379m524.191 13.069-13.381 3.734-1.245-4.668 13.381-3.734zm5.136-1.4-3.736 1.089-1.245-4.667 3.731-1.089zm-15.406-17.582c1.401-.312 4.668-1.089 6.846 5.446 1.089 3.112 1.245 6.69-2.334 7.934l-7.779 2.491c-.467 0-.933.467-1.089.933h-.311l-1.556-4.668c.467-.466.778-.622 1.4-.778-1.089-.467-2.645-1.401-3.579-4.201-.778-2.334-.777-4.978 2.646-6.068s4.667 1.4 6.845 6.068c.467.933.934 2.023 1.868 1.712 1.244-.311.778-1.712.623-2.334-.934-2.645-1.557-2.489-2.179-2.178zm-1.711 7.624c-.778-1.556-1.4-2.489-2.333-2.023-.934.311-.624 1.555-.468 2.023.467 1.4 1.712 2.956 3.424 2.334h.622l.155-.156c-.467-.622-.623-.778-1.4-2.178m-500.232-20.072c6.535 2.49 5.601 7.936 4.357 11.203-1.401 3.735-4.357 7.935-10.736 5.601l-10.891-4.045 1.867-4.979 11.047 4.201c2.644.933 4.045-1.4 4.356-2.178.311-.933.778-3.579-1.867-4.513l-11.047-4.201 1.867-4.978.156-.156zm501.53-.571-1.454.728c.934.311 2.646.777 3.735 3.422.155.623 1.866 4.824-3.268 6.846l-8.401 3.268-1.712-4.357 7.313-2.801c2.333-.933 1.867-2.333 1.556-3.111-.467-1.089-1.556-2.178-3.423-1.4l-7.157 2.8-1.712-4.357 12.914-5.134zm-486.126-14.988-2.178 4.668-13.381 2.178 10.269 4.668-2.178 4.668-17.271-8.09 2.179-4.668 13.381-2.179-10.27-4.668 2.179-4.667zm486.229 15.249-.103-.261.103-.051zm-15.403-16.96c4.045-1.867 8.09-.467 10.113 3.578 2.956 6.224-2.334 9.336-4.512 10.581l-4.356-9.491c-2.489 1.244-1.868 3.111-1.557 4.045.622 1.4 1.556 1.555 2.179 1.555l2.022 4.358c-.933 0-1.556-.001-2.801-.312-1.089-.311-3.111-1.245-4.511-4.201-1.712-3.734-.934-8.09 3.423-10.113m7.157 5.135c-.934-1.868-2.645-1.713-3.268-1.557l2.334 5.135.156-.156c.466-.311 1.711-1.555.778-3.422m-9.959-24.118h.622l-1.867 1.089c2.956-.311 4.045 1.712 4.356 2.179 1.245 2.178 0 3.734-.622 4.201.622 0 2.957 0 4.201 2.334 1.089 1.867.933 4.512-2.645 6.534l-7.935 4.358-2.334-4.046 7.157-4.045c1.09-.622 1.556-1.401 1.089-2.334-.466-.934-1.711-.934-2.8-.312l-7.002 3.89-2.333-4.045 7.157-4.046c.933-.622 1.711-1.244 1.089-2.177-.623-1.09-1.867-.779-2.956-.312l-7.002 3.89-2.334-4.045 12.136-6.847zm-472.378-1.867 4.668 12.914 4.512-8.091 3.89 2.179-7.935 14.315-3.89-2.179-4.668-12.914-4.201 7.469-3.89-2.179 7.624-13.692zm9.957-15.559-5.445 8.402 2.644 1.712 4.668-7.157 3.423 2.177-4.668 7.158 2.957 1.867 5.484-8.532 3.54 2.308-8.557 13.071-16.027-10.425 8.403-12.914zm445.617 3.112c4.357-2.956 8.402-.933 10.425 2.179 2.178 3.267 2.334 7.623-2.023 10.423-4.356 2.957-8.246 1.09-10.424-2.177-2.023-3.112-2.334-7.469 2.022-10.425m7.469 4.201c-1.245-1.867-3.423-.933-4.823 0-.467.311-3.112 2.178-1.556 4.357 1.4 2.022 3.889.622 4.667 0 .934-.623 3.112-2.334 1.712-4.357m-444.023-1.686-.039-.026.156-.155zm439.666-18.541-3.422 6.535 7.313-1.401 3.578 4.824-13.381 1.867-5.756 4.356-3.268-4.356 5.757-4.357 5.601-12.292zm-441.415 7.313c1.09-1.4 3.112-1.867 4.667-.778h.157c1.555 1.089 1.866 3.267.622 4.668-1.089 1.556-3.268 1.866-4.668.777-1.556-1.089-1.711-3.267-.778-4.667m16.335-12.915 5.602 4.668.155.156-3.578 4.2-5.601-4.667-13.381-2.645 3.889-4.668 7.158 1.867-2.957-6.846 3.89-4.668zm406.097-1.867c1.4-1.245 3.579-.933 4.668.311 1.245 1.401 1.089 3.579-.467 4.668v.156c-1.4 1.244-3.579 1.089-4.668-.467-1.244-1.401-1.089-3.579.467-4.668m3.734-11.047-2.956 2.956-7.002-7.312-2.334 2.178 5.914 6.224-2.957 2.801-5.913-6.224-2.489 2.489 7.081 7.388-2.88 2.881-10.891-11.202 13.847-13.226zm-406.408-1.244c2.645-2.801 6.846-4.046 10.58-.312 3.89 3.579 2.956 7.779.156 10.736-2.645 2.8-6.846 4.045-10.736.311-3.889-3.734-2.801-7.935-.156-10.735zm395.828 11.824-.076-.08.076-.075zm-388.515-8.558c-.778-.778-2.957-2.488-4.668-.777-1.556 1.712.001 3.579 1.09 4.823.467.468 2.8 2.489 4.511.622s-.155-3.89-.933-4.668m11.048-21.16c1.555-1.4 4.2-1.867 6.845 1.089l6.069 6.691-3.423 3.112-5.602-6.068c-.778-.934-1.711-1.245-2.489-.467s-.467 1.867.311 2.8l5.446 5.913-3.423 3.112-5.602-6.068c-.778-.778-1.555-1.245-2.489-.623-.933.778-.311 2.023.467 2.957l5.29 5.913-3.423 3.111-9.336-10.27 3.112-2.799v-.157l1.556 1.557c-.933-2.8.777-4.356 1.089-4.668 1.867-1.711 3.578-.778 4.356-.467-.155-.622-.777-2.801 1.246-4.668m374.823 5.602-2.957 3.267-13.536 1.556h.155l6.847 6.224-2.957 3.267-12.136-11.047 2.956-3.267 13.537-1.556-6.38-5.757 2.956-3.267zm-23.808-20.383-.933 13.536 6.846-9.024 4.045 3.267-11.825 14.938-4.045-3.268.934-13.537-6.846 9.025-4.046-3.268 11.825-14.937zm-340.281 5.912c5.446-4.356 9.647.156 11.358 2.024l-8.014 6.471c1.69 2.053 3.511.989 4.125.53 1.244-.934 1.089-1.867.933-2.49l3.734-2.956c.311.778.467 1.556.311 2.645 0 1.089-.466 3.423-3.111 5.446-3.112 2.49-7.625 2.801-10.581-1.089-2.801-3.423-2.334-7.78 1.245-10.581m15.249-11.047c.468-.312 4.201-2.954 7.312 1.557l5.135 7.468-3.889 2.645-4.513-6.379c-1.4-2.022-2.645-1.245-3.423-.778-.933.622-1.867 2.023-.622 3.734l4.356 6.379-3.889 2.646-7.936-11.515 3.735-2.644.31-.156 1.09 1.401c0-1.089.156-2.802 2.334-4.358m-9.492 13.693c-.467-.312-1.867-1.245-3.578 0-1.712 1.244-.934 2.956-.779 3.422zm317.098-21.162-6.535 9.803c-1.555 2.334.312 4.201 1.245 4.823.934.623 3.268 1.557 4.824-.777l6.535-9.803 4.356 2.956-6.535 9.647c-3.89 5.757-9.023 3.579-11.824 1.712-3.268-2.178-6.691-6.068-2.957-11.669l6.535-9.648zm-294.847-.932c2.8-1.712 6.223-2.801 8.246.467l4.201 7.001c.311.466.623.778 1.245.778v.311c.154.001-4.046 2.645-4.046 2.645h-.155a3.6 3.6 0 0 1-1.089-1.089c-.156 1.245-.778 2.801-3.267 4.357-2.023 1.244-4.669 1.866-6.536-1.246-1.866-2.956.312-4.823 4.357-8.09.778-.778 1.711-1.4 1.245-2.178-.622-1.089-1.867-.311-2.334 0-2.333 1.4-2.023 2.022-1.712 2.644l-3.89 2.334c-.622-1.4-2.021-4.356 3.735-7.934m266.529-4.513c3.423-6.068 9.024-6.69 13.381-4.201 6.068 3.423 4.512 9.024 4.045 10.425l-4.512-2.489v-.157c.778-2.178-.622-3.267-1.867-3.889-2.023-1.245-4.202-.778-6.38 3.112-2.645 4.512.312 6.224 1.245 6.69.934.467 2.49 1.245 4.357-.466l-2.645-1.556 1.867-3.268 7.158 4.045-5.135 9.025-3.113-1.711.623-1.712c-.934.311-2.957.933-6.068-.778-5.446-3.112-5.601-8.558-2.956-13.07m-260.616 10.737c-.467.622-.623.778-1.712 1.867-1.245 1.244-2.022 1.866-1.556 2.8.467.777 1.712.155 2.023 0 1.244-.779 2.489-2.334 1.555-3.89l-.31-.467zm13.224-.467-4.201 2.333-6.69-12.291 4.201-2.334zm6.071-3.735c1.4 2.801-1.244 4.357-2.8 5.29l-.778-1.4c1.4-.778 1.711-1.401 1.4-2.334l-2.022 1.089v-.155l-2.179-4.202 4.356-2.177zm230.431-6.846-1.867 3.889c-1.245 2.801-4.2 1.712-5.912.934l.622-1.4c1.556.622 2.179.467 2.646-.311l-2.023-.934 2.023-4.201zm-3.423-11.202-5.447 12.757-4.356-1.866 5.445-12.759zm-217.365-7.314c6.535-2.645 9.959 2.023 10.737 3.112l-4.824 2.023.311-.155c-1.245-1.867-2.956-1.556-4.356-.934-2.179.934-3.112 2.801-1.401 7.002 2.023 4.823 4.979 3.578 6.068 3.111 1.09-.467 2.49-1.089 2.179-3.734l-2.801 1.245-1.4-3.423 7.469-3.112 3.889 9.491-3.267 1.4-.934-1.555c-.311.933-.933 2.956-4.356 4.356-5.757 2.334-10.114-.933-12.137-5.757-2.645-6.379.311-11.203 4.823-13.07m-23.026 15.715-4.201 2.334-1.867-3.423 4.201-2.334zm218.919-12.603c.622-1.245 2.179-4.356 8.558-1.867 3.111 1.089 6.067 3.268 4.667 6.691l-2.8 7.624a2.15 2.15 0 0 0 0 1.4v.312l-4.513-1.603c0-.599.005-1.055.156-1.51-1.089.623-2.645 1.245-5.601 0-2.179-.778-4.357-2.489-3.113-5.912 1.245-3.267 3.89-2.8 9.025-1.556 1.089.312 2.178.467 2.489-.466.467-1.09-.934-1.712-1.4-1.868-2.645-.933-2.801-.311-3.112.311zm5.912 12.557v.047l-.311-.156zm-172.707-25.626 3.578 11.047c2.178 6.69-2.645 9.336-5.912 10.425-3.734 1.244-8.868 1.555-11.047-4.824l-3.579-11.047 4.979-1.711 3.734 11.202c.933 2.645 3.579 2.334 4.513 2.023s3.267-1.712 2.489-4.357l-3.735-11.202 4.98-1.712zm171.93 19.449c-1.712-.311-2.646-.467-3.113.467-.31.933.934 1.4 1.401 1.556 1.4.466 3.422.466 4.045-1.245v-.469c-.651-.002-.888-.02-2.333-.309m-15.404-14.004h.156l-.467 1.712c.933-.622 2.334-1.556 4.978-.778.623.156 4.979 1.556 3.268 6.69l-2.645 8.558-4.512-1.4 2.334-7.469c.777-2.334-.623-2.956-1.401-3.112-1.089-.311-2.645-.155-3.267 1.868l-2.334 7.312-4.512-1.4 4.045-13.381zm-131.166 7.935-4.979 1.245-10.113-9.18 2.8 10.892-4.979 1.244-4.512-18.516 4.979-1.244 10.114 9.18-2.801-10.892 4.979-1.244zm108.762-6.379c1.089-4.356 4.668-6.691 9.024-5.602 6.691 1.556 5.757 7.781 5.446 10.115l-10.113-2.491c-.623 2.801 1.244 3.424 2.177 3.735 1.556.311 2.179-.311 2.646-.778l4.668 1.089c-.467.623-.934 1.4-1.867 2.023-.934.622-2.957 1.711-6.224.933-3.89-.933-6.846-4.201-5.757-9.024m56.322 5.29-1.555 3.579-4.357-1.867 1.556-3.579zm-72.66-15.714.155.311-.311 2.178c1.556-2.489 4.046-2.178 4.357-2.022 2.489.467 2.801 2.333 2.956 3.111.467-.622 1.712-2.333 4.512-1.867 2.023.311 4.045 2.023 3.423 6.068l-1.556 8.87-4.668-.779 1.401-8.091c.155-1.244 0-2.178-1.089-2.334-1.089-.155-1.711.778-2.023 2.023l-1.4 7.935-4.668-.778 1.4-8.246c.156-1.089 0-2.023-1.088-2.334-1.245-.156-1.868.934-2.024 2.179l-1.244 7.779-4.668-.778 2.334-13.848zm-77.642-.778-7.158 11.669.156.156 9.18-1.557.778 4.357-16.182 2.645-.777-4.356 7.157-11.67-8.558 1.4-.778-4.356 15.403-2.645zm18.671-1.867-9.958.933.312 3.112 8.558-.778.466 4.045-8.557.778.31 3.579 10.116-1.074.465 4.186-15.559 1.556-1.867-18.983 15.248-1.556zm37.032 7.624c.466-5.29 4.512-7.157 8.246-6.691 3.89.311 7.313 2.956 6.846 8.091s-4.356 7.157-8.246 6.69c-3.734-.311-7.313-2.8-6.846-8.09M740.713 460c0 .155 2.956 7.002 2.956 7.002l3.578-6.535h6.068c0 .156-6.979 11.789-7.001 11.825l-.311 7.157-.155.155h-5.447c.001-.16.309-7.4.312-7.467L734.645 460zm57.102 15.87c-2.022-.467-2.956 1.09-3.267 1.557l5.446 1.244c0-.623-.156-2.334-2.179-2.801m-38.743-6.224c-2.334-.155-2.956 2.179-3.112 3.735 0 .622-.311 3.734 2.334 4.046 2.489.155 2.956-2.646 2.956-3.579 0-1.09.156-3.89-2.333-4.202zm-43.72 6.084-.001-.015h.155zm7.779-8.418c1.867 0 3.423 1.401 3.423 3.268s-1.401 3.423-3.268 3.423-3.423-1.401-3.423-3.268 1.401-3.423 3.268-3.423"/></svg>