<svg xmlns="http://www.w3.org/2000/svg" width="1470" height="1475" fill="none" viewBox="0 0 1470 1475"><path fill="#00c3d0" d="M699.899 1278.35c12.941.65 18.118 11 17.471 21.68-.97 14.56-10.677 20.71-21.029 20.06-14.558-.97-16.5-12.94-17.147-15.53l10.4.63c.74 4.57 3.904 5.2 7.07 5.52 4.853 0 8.412-2.27 9.059-11.65.647-11-6.147-11.32-8.411-11.32-2.265 0-5.824 0-7.442 4.85h6.471c0 .32-.321 8.02-.323 8.09l-16.824-.97 1.294-21.36h7.442v4.21c1.294-1.29 4.529-4.53 11.969-4.21m64.38 40.44c.316 0-9.706.65-9.706.65v-8.09h-.323l10.029-.64zm-127.469-30.73c1.941-14.56 13.587-14.88 20.705-13.91 8.088.97 18.117 5.17 16.175 19.09l-3.234 23.94-11-1.62 3.235-24.27c.647-5.82-4.529-7.44-6.47-7.76-2.265 0-7.764 0-8.411 5.82l-3.236 24.27-11-1.62zm-28.465-22 10.676 26.21 4.529-22.97 10.677 2.26-8.413 38.82-10.675-2.26-10.676-26.21-4.529 22.97-10.677-2.26 8.412-38.82zm155.934 42.06-10.029.64-1.294-29.11 10.029-.65zm22.97-31.71c4.853-.32 10.352.97 10.999 8.09.647 7.44-4.852 8.74-15.528 11.32-2.265.65-4.53.98-4.206 2.92 0 2.58 3.235 2.26 4.206 2.26 5.822-.65 5.823-1.94 5.5-3.23l9.382-.98c0 3.24-.001 10.03-14.236 11.33-6.794.65-14.234-.65-14.882-8.41l-1.617-16.83c0-.97-.324-1.94-1.618-2.59v-.64l10.353-.97.324-.33c.647.97.97 1.95.97 3.24 1.618-1.94 3.883-4.53 10.353-5.18m-97.379 28.8-.276-.02c-.016-.1-.033-.2-.047-.31zm143.968-5.5-9.382 1.61-.323.33-.648-3.56c-.97 1.94-2.912 5.17-8.412 5.82-1.296 0-10.675 1.62-12.293-9.7l-2.912-18.44 9.706-1.62 2.588 16.17c.647 5.18 3.883 4.86 5.5 4.53 2.265-.32 5.176-1.94 4.529-6.47l-2.587-15.85 9.705-1.62zm-238.761-36.56-2.589 8.73-23.94 15.53 17.146 5.18-2.588 8.74-31.381-9.06 2.588-8.74 23.941-15.53v-.32l-18.442-5.5 2.589-8.74zm251.056 3.56c8.088-1.94 16.823 1.61 19.088 11.64 1.941 9.06-2.912 16.83-11.971 18.77-14.234 2.91-17.793-9.06-19.411-13.91l21.029-4.53v-.33c-1.294-5.82-5.5-5.5-7.441-4.85-3.235.65-3.883 2.59-4.206 3.88l-9.705 2.27c0-1.62.646-3.24 1.94-5.5.971-1.94 3.883-5.83 10.677-7.44m-58.237 18.76c0-1.94-2.911-1.94-3.882-1.62-3.236 0-6.795 2.27-6.471 5.83v1.29h.323c1.294-.97 1.619-.97 4.854-1.62 3.558-.97 5.499-1.61 5.176-3.88m57.266 1.62h-.323c.647.97 2.265 4.2 6.794 3.23 4.205-.97 4.529-4.52 4.852-5.82zm67.615-8.74-8.411 2.59v1.3l-1.618-4.53c-.647 6.14-5.5 7.44-6.471 7.76-4.852 1.62-7.44-1.94-8.411-3.23 0 1.29-1.294 5.82-6.47 7.44-4.206 1.29-9.706 0-11.97-8.41l-5.177-18.12 9.382-2.91 4.853 16.5c.647 2.26 2.264 3.88 4.205 3.23s2.589-2.91 1.942-5.5l-4.853-16.17 9.382-2.92 4.853 16.5c.647 2.27 1.941 3.89 3.883 3.24 2.587-.65 2.588-3.56 1.941-5.82l-4.529-15.86 9.381-2.91zm-164.672-1.29c-3.235 0-4.529.97-4.529 2.91h4.853l-.324.33v9.7h-10.029v-9.06c-.323-6.47 6.147-7.11 10.029-7.11zm-189.585-24.59-13.912 37.21-29.764-11 2.912-8.09 19.734 7.12 2.265-6.15-16.822-6.15 2.911-7.76 16.823 6.15 2.588-6.8-20.058-7.44v-.32l2.911-8.09zm403.104-7.11 22.323 17.14-11.323 5.18-11.971-10.03-.646 15.53-11.323 5.17 2.264-28.14-6.147-13.91.323-.33 10.354-4.53zm-40.435-.65c7.441-2.91 16.5-1.3 20.382 9.06 3.882 10.35-1.941 17.47-9.382 20.06-7.44 2.91-16.499 1.29-20.381-9.06-3.882-10.36 1.617-17.15 9.381-20.06m10.677 11.97c-.324-1.3-2.912-7.12-8.088-5.18-4.852 1.94-3.235 7.44-2.264 9.71.647 1.94 3.235 7.44 8.088 5.5 4.529-1.62 3.558-6.47 2.264-10.03m-445.172-34.94L479.9 1235l.648 28.15-11-5.82v-15.52c-.284.43-11.928 9.01-11.97 9.05l-11-5.83 23.617-15.53 6.595-12.87zm12.623 26.53c1.618-3.56 5.824-5.18 9.059-3.56 3.559 1.62 5.176 5.82 3.559 9.06-1.618 3.56-5.824 5.17-9.059 3.56-3.558-1.62-5.176-5.5-3.559-9.06m545.453-20.06-27.17 16.5-4.53-7.44 17.79-10.68-3.56-5.82-15.2 9.38-4.21-7.12 15.21-9.38-3.89-6.15-18.44 11-4.525-7.44 27.825-16.82zm-57.905.65c3.235-1.62 7.764-.65 9.382 2.91 1.941 3.56.324 7.76-2.911 9.38s-7.765.65-9.383-2.91c-1.941-3.56-.323-7.77 2.912-9.38m-553.222-20.39c5.499-9.38 14.558-9.38 21.352-5.17 6.794 4.2 11.323 11.97 5.5 21.35s-14.882 9.38-21.676 5.18h.324c-6.794-4.21-11.324-11.97-5.5-21.36m626.657-28.14-2.91 28.47 14.56-10.36 5.17 7.45-26.53 18.76-5.17-7.44 2.91-28.47-15.85 11-5.18-7.44 27.82-19.41zm-609.187 28.79c-4.529-2.59-7.764 2.26-9.058 4.21-.971 1.94-3.883 7.11.646 9.7l.323.33c4.206 2.58 7.442-1.3 9.06-4.53.647-.98 3.882-6.8-.971-9.71m-38.501-32.67-9.706 14.23c-1.294 1.94-1.617 4.21 0 5.18 1.941 1.29 3.883 0 5.5-1.95l9.706-13.91 8.088 5.5-9.706 14.24c-1.294 1.94-1.941 3.88 0 5.17 2.265 1.62 4.206 0 5.823-2.26l9.383-13.59 8.088 5.5-16.5 23.94-7.117-5.17-.971.32 2.588-3.88c-5.176 3.23-9.381.32-10.028 0-4.206-2.91-3.236-7.12-2.912-8.41-1.294.64-5.5 2.91-10.03-.33-3.558-2.59-5.823-7.44-.97-14.56l10.676-15.52zm64.178 40.18-.124-.07.323-.32zm634.63-38.24-8.41 6.79-27.18-8.09 15.21 17.8-8.41 6.79-25.24-30.73 8.41-6.8 27.18 8.09-15.21-17.79 8.42-6.8zm-732.456-23.62c2.265-.32 7.118-.65 12.294 3.88 6.47 5.18 9.058 14.24 2.588 22-5.824 7.12-14.883 8.41-22 2.26-11.323-9.05-3.882-19.73-1.294-23.94l16.823 13.59c3.558-4.53.648-7.76-.646-8.73-2.588-1.94-4.206-1.3-5.5-.97l-7.765-6.15c1.617-.97 2.912-1.62 5.5-1.94m-4.529 15.2c-.324.98-1.618 4.53 1.617 7.12 3.235 2.91 6.471.65 7.441 0l-9.058-7.44zm742.805 3.24-.32-.32.01-.01zm-14.55-42.38c6.14-5.83 15.52-10.68 24.91-.65l16.5 17.47-8.09 7.44-16.83-17.79c-3.88-4.21-8.73-1.3-10.35 0-1.62 1.62-4.85 6.15-.65 10.35l16.83 17.8-8.08 7.43-16.19-17.14c-10.02-10.68-3.23-19.74 1.95-24.91m-740.546 3.56-11 11.97c-3.559 3.88-1.295 6.14 0 7.12 1.617 1.61 4.853 2.58 7.764-.33l11-11.97 7.117 6.47-19.734 21.35-6.96-6.32 2.107-2.41c-2.264.32-5.823.97-10.029-2.91-.97-.97-7.764-7.12 0-15.53l12.617-13.91zm-11.813 28.29-.157.18v-.33zm-19.25-58.7c.005-.3 6.312 6.27 7.048 7.04-.341 1.13-.944 1.76-1.548 2.66 2.588 0 6.147 0 10.353 4.85 3.558 3.56 5.823 8.74.324 13.92-5.177 5.17-9.707 1.61-18.442-5.18-1.941-1.29-3.558-2.91-4.852-1.62-1.941 1.94 0 3.88.971 4.85 4.205 4.21 5.176 3.24 6.146 2.27l6.794 6.79c-2.588 1.94-7.764 6.15-17.793-4.2-4.853-4.86-8.412-11.33-2.912-16.83l12.294-11.64c.647-.65 1.294-1.62.971-2.91zm801.039-3.56c8.74-9.71 19.74-7.44 27.83 0 10.67 9.7 9.38 21.35 2.59 29.11-9.71 10.68-20.39 4.86-22.97 3.56l7.11-8.09h.33c4.2 2.59 6.79 0 9.06-1.94 3.23-3.56 3.23-8.08-3.56-14.23-8.09-7.44-12.62-2.27-14.24-.65s-3.56 4.21-.97 9.06l4.21-4.85 5.82 5.17-11.32 12.62-15.85-14.56 4.85-5.5 2.91 2.27c0-1.94-.65-6.47 4.2-11.97m-826.597 21.67-6.146 5.5-6.471-7.44 6.147-5.5zm33.647-1.61c-2.265-2.27-5.824-3.89-8.735-1.3l-.971.97c1.617.65 1.618.65 4.529 2.59 2.912 2.26 4.529 3.24 6.147 1.94 1.617-1.29-.323-3.56-.97-4.2m-10.029-19.42-21.676 19.09-6.471-7.44 21.676-19.09zm9.058 10.03s-.024-.02-.07-.07c.024-.08.049-.16.07-.25zm-25.88-28.14c5.177-4.21 9.383.64 11.971 3.56l-2.588 2.26c-2.265-2.59-3.559-2.91-5.177-1.94l3.236 3.56h-.648l-7.44 6.15-6.471-7.77zm892.601-7.77-5.83 8.09-6.47-4.85 5.83-8.09zm-922.69-33.32-2.911 2.59c1.942 0 6.471.65 10.676 6.79 7.441 10.68 2.912 21.03-6.146 27.18-11.971 8.41-22.971 4.53-28.794-3.88-8.412-11.97-.323-21.03 1.618-23.3l6.146 8.74h.648c-3.235 3.56-1.941 6.47 0 9.06 2.911 3.88 7.117 5.17 14.882 0 9.058-6.15 4.852-11.97 3.558-13.59s-3.235-4.53-8.735-2.91l3.558 5.17-6.469 4.53-9.706-13.91 17.469-12.29zm879.66 20.38c-1.95 2.91-1.95 4.21-.65 5.5l2.91-3.88v.32l7.76 5.83-6.14 8.08-7.12-5.49c-5.18-3.89-1.62-9.39.65-12.3zm34.29 6.47-5.82 8.09-23.62-17.15 5.83-8.08zm-10.68-38.17c2.59-4.21 7.12-7.44 13.27-3.56 6.15 4.2 3.88 9.38-.97 19.09-.97 1.94-1.94 4.2-.33 5.17 2.27 1.3 3.89-.97 4.53-1.94 3.24-4.85 1.94-5.5.65-6.47l5.18-8.09c2.26 1.94 7.76 6.47 0 18.12-3.89 5.82-9.39 10.68-15.86 6.47l-14.23-9.38c-.97-.65-1.94-.97-2.91-.33h-.65c0-.32 5.8-9.02 5.82-9.05v.32c1.3 0 1.95.32 3.24.97-.65-2.26-1.29-6.15 2.26-11.32m-942.088-22.33c12.617-7.44 20.058 1.3 23.941 7.45 4.205 7.11 7.117 17.46-4.853 24.58l-20.706 12.3-5.499-9.39 21.028-12.61c5.176-2.91 2.912-8.41 1.942-10.03-.971-1.94-4.854-5.83-9.706-2.91l-21.029 12.61-5.5-9.38-.323-.32zm949.858 27.83c-1.62-.97-3.24.97-3.88 1.94-1.62 2.59-2.59 6.47.64 8.73l.97.65h.33c0-1.62.32-1.94 1.62-4.85 1.29-3.24 2.26-5.18.32-6.47m39.47-26.21-4.64 8.04-3.12-1.57c.64 1.94 2.26 5.5-.65 10.35-.65.97-5.18 9.39-15.21 3.56l-16.17-9.38 4.85-8.41 13.91 8.09c4.53 2.59 6.15 0 7.12-1.3 1.29-1.94 1.62-5.17-2.27-7.44l-13.91-8.09 4.85-8.407zm-4.53 8.09-.32.32.21-.37zm-985.122-45.617-13.911 24.588 20.705-10.677 4.853 9.706-35.588 17.79-4.852-9.7 13.911-24.59-20.705 10.677-4.853-9.706 35.587-17.793zm971.532 6.47c3.88-7.441 11.64-11.969 21.03-7.44 8.08 4.206 11.32 12.617 7.11 21.028-6.47 12.939-18.44 8.089-22.97 6.471l9.71-19.411c-5.18-2.588-7.76.97-8.41 2.588-1.3 2.911-.33 4.529.32 5.823l-4.53 8.735c-1.29-1.294-2.26-2.588-3.23-4.852-.65-1.941-2.27-6.795.97-12.942m15.53 13.912c1.29 0 4.85.647 6.79-3.235s-.65-6.47-1.62-7.117zm-993.213-33-8.411 3.56-27.175-9.06 6.794 16.5-8.413 3.559-12.294-30.087 8.413-3.559 26.852 9.059h.323l-7.441-17.794 8.412-3.558zm1029.123-24.586-3.15 7.872-3.64-1.402c4.2 4.529 2.59 9.058 1.94 10.029-1.94 4.852-6.15 4.529-7.77 4.529.97.97 3.89 4.529 1.62 10.029-1.62 3.882-6.14 7.441-13.91 4.206l-17.47-7.117 3.56-9.059 15.85 6.47c2.27.971 4.21.647 5.18-1.294s-.65-3.882-3.24-4.852l-15.53-6.471 3.56-9.059 15.86 6.471c2.26.971 4.2.97 5.17-.971.97-2.588-.97-4.205-3.23-5.175l-15.21-6.148 3.56-9.058zm-2.59 8.087h-.64l.08-.215zM223.031 924.745l-37.851 12.618-10.03-30.088 8.412-2.912 6.47 19.736 6.471-1.942-5.5-16.823 7.765-2.588 5.5 16.823 6.794-2.264-6.794-20.382 8.411-2.912zm1021.359-18.44c2.58-7.441 9.06-13.588 19.73-10.353 10.68 3.559 12.29 12.294 10.03 19.734v.325c-2.59 7.764-9.38 13.587-19.73 10.028-10.36-3.235-12.3-12.293-10.03-19.734m16.5-.648c-1.3-.323-7.44-2.264-9.06 2.912-1.62 4.853 3.88 7.118 5.82 7.765s7.77 2.264 9.38-2.912v.323c1.62-4.529-2.91-6.794-6.14-8.088m33.64-25.234-15.2 2.912 11.64 10.029-3.23 11.97-20.38-19.411-14.48-3.862 2.83-10.697 14.56 3.883 27.5-6.794zm-1105.799-4.205c3.883-.971 7.441 1.294 8.412 4.852.97 3.559-1.294 7.441-4.853 8.411-3.882.971-7.442-1.293-8.412-4.852s1.295-7.441 4.853-8.411m1064.149 5.843-.08.303v-.323zM184.853 841.599l14.57-2.85 2.253 11.263-14.883 2.911-21.676 18.117-2.264-12.293 12.293-9.383-14.881-3.882L158 833.188zm1088.647 3.884c.65-3.558 4.53-6.147 8.09-5.5 3.88.647 6.14 4.529 5.5 8.088-.65 3.559-4.21 6.147-8.09 5.5s-6.15-4.529-5.5-8.088m-1074.077-6.734-.012-.061h.323zm-20.718-38.883c11-1.617 16.499 5.5 17.47 13.588.97 7.764-2.264 16.176-13.264 17.794s-16.5-5.824-17.471-13.588c-.97-8.088 2.265-16.176 13.265-17.794m1130.055-.323-4.2 31.705-8.74-1.294 2.59-20.706-6.47-.971-2.27 17.794-8.41-.971 2.27-17.793-7.12-.97-2.91 21.352.32.324-8.73-1.294 4.2-32.353zM188.734 814.425c-.647-5.177-6.47-4.853-8.735-4.53-2.265 0-8.088 1.618-7.117 6.471v.323c.647 4.853 5.823 4.853 9.058 4.53 1.295-.001 7.765-1.295 6.794-6.794m1.944-51.117-17.147.971c-2.588 0-4.206 1.294-4.206 3.236 0 2.264 2.265 3.234 4.853 2.911l16.823-.97.647 9.705-17.147.971c-2.264 0-4.205.971-4.205 3.235 0 2.588 2.911 3.235 5.176 3.235l16.5-.97.647 9.705-29.117 1.941-.648-8.735.324.324 4.529-.647c-5.823-1.942-6.146-7.118-6.146-8.088-.324-5.176 3.558-6.795 4.852-7.442-1.295-.647-5.5-2.588-5.823-8.088 0-4.205 2.265-9.381 10.677-9.705l18.763-1.294zm1090.592-5.5 20.38 20.058 1.29-17.793 9.06.647-1.94 32.352-9.06-.647-20.38-20.059h-.33l-1.29 19.412-9.06-.647 2.27-33.97zm30.41-30.734-22.97 16.176 23.29-.648v10.677l-39.47.647V743.25h-.32l23.29-16.176-23.29.647v-10.676l39.47-.648zM178.379 741.301c5.524-.154 6.146-4.234 6.146-6.139 0-3.235-1.617-4.206-2.911-4.853V720.28c1.941.647 3.235 1.294 4.853 2.911 1.617 1.618 4.852 5.177 4.852 11.971 0 8.411-5.499 15.852-15.528 15.853-9.059 0-15.529-6.471-15.529-15.853 0-14.558 12.941-15.206 18.117-15.529zm-6.794-11.603c-1.266.228-4.235 1.669-4.529 5.787 0 4.206 3.558 5.5 4.529 5.823zm-9.705-33.359c0-1.294.647-10.677 11.971-10.03l18.764 1.294-.647 9.706-16.176-.97c-5.176-.324-5.5 2.588-5.823 4.529 0 2.265.97 5.5 5.176 5.823l16.175.971-.646 9.705-29.117-1.94.647-9.706v.323h3.559c-1.618-1.294-4.207-3.882-3.883-9.705m1147.53-13.911-24.58 1.94c-5.83.647-6.47 6.148-6.15 8.089 0 2.265 1.62 7.441 7.44 7.117l24.59-1.941.97 11h-.33l-23.94 1.941c-14.56 1.294-17.47-10.03-18.11-17.147-.65-8.412 1.29-18.764 15.2-20.058l23.94-1.941zM165.442 665.281c.971-6.794 3.559-13.588 11.324-12.617l16.823 2.265c.97 0 2.265-.001 2.912-.971h.646l-1.293 10.352h-.324c-1.294.647-1.941.648-3.235.325 1.617 1.941 3.558 4.852 2.911 10.999-.647 4.852-3.235 10.029-10.352 9.058-7.441-.97-7.441-6.793-7.441-17.469 0-2.265 0-4.529-1.941-4.853-2.588-.324-2.912 2.588-2.912 3.882-.647 5.823.647 5.823 2.264 6.146l-1.294 9.383c-2.912-.647-9.705-2.265-8.088-16.5m17.272-1.617c.52 1.354.522 1.844.522 4.852 0 3.559.324 5.823 2.588 6.147 1.941 0 2.265-2.588 2.588-3.559.324-3.235-.647-7.117-4.529-7.44zm1098.556-33.323c14.24-2.265 22.65 6.147 24.27 16.175 2.26 14.559-9.06 19.088-11.65 20.059l-1.62-10.676v-.647c4.53-1.618 4.53-5.176 3.88-8.088-.64-4.853-4.2-7.765-13.26-6.148-10.68 1.618-9.71 8.413-9.38 10.677.32 2.265.97 5.5 6.47 6.471l-.97-6.471 7.76-1.294 2.59 16.824-21.35 3.558-1.3-7.118 3.56-.97c-1.62-.97-5.5-3.559-6.47-10.677-1.94-12.94 6.8-20.058 17.47-21.675M199.087 641.34l-1.617 9.706-28.47-4.854 1.617-9.705zm-31.381-5.176-1.618 9.705-8.088-1.294 1.617-9.706zm33.002-9.705c6.47 1.294 5.5 7.764 4.853 11.323l-3.235-.647c.647-3.235 0-4.53-1.941-5.177l-.971 4.853v-.324l-9.706-1.94 1.941-10.03zm1066.972-14.882-8.74 2.265c-6.47 1.617-8.09-4.53-9.06-8.412l3.24-.647c.97 3.235 1.94 4.205 3.88 3.882l-1.29-4.529v-.324l9.38-2.264zM191.647 564.343l-2.911 10.352-.324-.323c-4.852-.323-6.147 2.588-7.117 5.823-1.294 4.853.647 8.735 9.382 11.323 10.352 2.912 12.294-3.558 12.941-5.5.647-2.264 1.294-5.5-3.235-8.412l-1.942 6.148-7.44-2.265 4.853-16.176 20.705 5.824-1.941 7.117-3.559-.648c.97 1.618 3.236 5.501 1.295 12.618-3.559 12.294-14.559 15.205-24.912 12.293-13.911-3.882-17.794-15.205-14.882-24.911 4.205-13.91 16.175-13.263 19.087-13.263m1089.943 27.175-27.82 7.765-2.59-9.706 27.82-7.765zm10.68-2.912-7.77 2.265-2.59-9.705 7.77-2.265zm-32.03-36.557c2.91-.647 9.7-2.264 14.23 11.323 2.27 6.47 2.59 13.912-4.85 16.5l-16.18 5.176c-.97 0-1.94.971-2.26 1.941h-.65l-3.23-9.706c.97-.97 1.61-1.294 2.91-1.617-2.27-.971-5.5-2.912-7.44-8.735-1.62-4.853-1.62-10.353 5.5-12.618 7.12-2.264 9.7 2.912 14.23 12.618.97 1.941 1.94 4.205 3.88 3.558 2.59-.647 1.62-3.558 1.3-4.852-1.94-5.5-3.24-5.177-4.53-4.53zm-3.56 15.852c-1.62-3.235-2.91-5.176-4.85-4.206-1.94.647-1.3 3.236-.97 4.206.97 2.912 3.55 6.147 7.11 4.853h1.3l.32-.323c-.97-1.294-1.29-1.618-2.91-4.53M216.557 526.167c13.587 5.176 11.646 16.499 9.058 23.293-2.911 7.764-9.059 16.5-22.323 11.647l-22.646-8.412 3.882-10.352 22.97 8.735c5.5 1.941 8.411-2.912 9.059-4.529.647-1.941 1.617-7.441-3.882-9.382l-22.971-8.735 3.883-10.353.323-.324zm1042.823-1.189-3.03 1.512c1.95.647 5.5 1.618 7.77 7.118.32 1.295 3.88 10.029-6.79 14.235l-17.48 6.794-3.55-9.059 15.2-5.823c4.85-1.941 3.88-4.852 3.24-6.47-.97-2.265-3.24-4.53-7.12-2.912l-14.88 5.823-3.56-9.058 26.85-10.676zM248.585 493.814l-4.529 9.706-27.824 4.53 21.353 9.706-4.529 9.705-35.911-16.823 4.529-9.706 27.823-4.529-21.352-9.706 4.529-9.705zM1259.59 525.52l-.21-.542.21-.105zm-32.03-35.264c8.41-3.882 16.83-.97 21.03 7.441 6.15 12.941-4.85 19.411-9.38 21.999l-9.06-19.734c-5.17 2.588-3.88 6.47-3.23 8.411 1.29 2.912 3.23 3.235 4.53 3.235l4.2 9.059c-1.94 0-3.23 0-5.82-.647-2.27-.647-6.47-2.588-9.38-8.735-3.56-7.764-1.95-16.824 7.11-21.029m14.89 10.676c-1.95-3.881-5.5-3.558-6.8-3.235l4.85 10.676.33-.323c.97-.647 3.56-3.235 1.62-7.118m-20.71-50.145h1.29l-3.88 2.265c6.15-.647 8.41 3.558 9.06 4.529 2.59 4.529 0 7.763-1.29 8.734 1.29 0 6.14.001 8.73 4.854 2.26 3.882 1.94 9.382-5.5 13.588l-16.5 9.058-4.85-8.412 14.88-8.411c2.26-1.294 3.23-2.911 2.26-4.852s-3.55-1.942-5.82-.648l-14.56 8.088-4.85-8.411 14.88-8.412c1.94-1.294 3.56-2.589 2.27-4.53-1.3-2.264-3.89-1.617-6.15-.646l-14.56 8.088-4.85-8.412 25.23-14.235zm-982.209-3.884 9.705 26.853 9.383-16.824 8.088 4.53-16.5 29.764-8.088-4.529-9.705-26.852-8.735 15.529-8.088-4.529 15.852-28.471zm20.703-32.351-11.323 17.47 5.5 3.559 9.706-14.882 7.117 4.529-9.706 14.882 6.148 3.882 11.403-17.74 7.36 4.8-17.793 27.175-33.323-21.675 17.471-26.853zm926.566 6.47c9.06-6.146 17.47-1.941 21.67 4.53 4.53 6.794 4.86 15.852-4.2 21.675-9.06 6.147-17.15 2.265-21.68-4.529-4.2-6.47-4.85-15.529 4.21-21.676m15.53 8.736c-2.59-3.882-7.12-1.941-10.03 0-.97.647-6.47 4.529-3.24 9.058 2.91 4.206 8.09 1.294 9.71 0 1.94-1.294 6.47-4.853 3.56-9.058m-923.251-3.506-.08-.053.323-.324zm914.191-38.553-7.12 13.588 15.21-2.911 7.44 10.029-27.82 3.882-11.97 9.059-6.8-9.059 11.97-9.059 11.65-25.557zm-917.828 15.206c2.265-2.912 6.471-3.882 9.706-1.617h.324c3.235 2.265 3.882 6.793 1.294 9.705-2.265 3.235-6.794 3.883-9.705 1.618-3.236-2.264-3.56-6.794-1.619-9.706m33.966-26.851 11.648 9.705.323.323-7.442 8.735-11.646-9.705-27.822-5.5 8.088-9.706 14.881 3.883-6.147-14.235 8.089-9.706zm844.392-3.883c2.91-2.588 7.44-1.942 9.7.646 2.59 2.912 2.27 7.442-.97 9.706v.324c-2.91 2.588-7.44 2.264-9.7-.971-2.59-2.912-2.27-7.441.97-9.705m7.76-22.971-6.14 6.148-14.56-15.207-4.86 4.53 12.3 12.941-6.15 5.823-12.29-12.94-5.18 5.176 14.72 15.363-5.98 5.989-22.65-23.294 28.79-27.499zm-845.035-2.588c5.5-5.823 14.235-8.411 21.999-.646 8.088 7.441 6.147 16.175.324 22.322-5.5 5.823-14.235 8.412-22.323.647-8.088-7.764-5.824-16.499-.324-22.323zM1139.56 371.2l-.16-.166.16-.157zm-807.83-17.794c-1.617-1.618-6.146-5.176-9.705-1.617-3.235 3.559 0 7.441 2.265 10.029.972.972 5.824 5.176 9.382 1.294 3.559-3.882-.324-8.088-1.942-9.706m22.971-43.999c3.235-2.912 8.736-3.882 14.236 2.265l12.617 13.911-7.117 6.471-11.648-12.618c-1.617-1.941-3.558-2.588-5.176-.97-1.617 1.617-.971 3.882.647 5.823l11.323 12.294-7.117 6.471-11.647-12.618c-1.617-1.617-3.235-2.588-5.176-1.294-1.941 1.618-.647 4.206.97 6.147l11 12.294-7.117 6.471-19.412-21.353 6.471-5.823v-.324l3.235 3.235c-1.941-5.823 1.617-9.058 2.265-9.705 3.882-3.559 7.441-1.618 9.058-.971-.323-1.294-1.618-5.824 2.588-9.706m779.359 11.648-6.14 6.794-28.15 3.235h.32l14.24 12.94-6.15 6.794-25.23-22.969 6.15-6.794 28.14-3.236-13.26-11.97 6.14-6.793zm-49.5-42.382-1.94 28.146 14.24-18.764 8.41 6.794-24.59 31.058-8.41-6.794 1.94-28.146-14.24 18.763-8.41-6.794 24.59-31.057zm-707.538 12.294c11.324-9.059 20.059.323 23.618 4.206l-16.663 13.458c3.514 4.266 7.298 2.057 8.574 1.1 2.588-1.941 2.265-3.882 1.941-5.176l7.765-6.147c.647 1.617.971 3.235.647 5.499 0 2.265-.971 7.118-6.47 11.323-6.471 5.177-15.854 5.824-22-2.264-5.823-7.118-4.852-16.176 2.588-21.999m31.706-22.97c.971-.648 8.735-6.146 15.205 3.235l10.676 15.53-8.088 5.5-9.382-13.265c-2.912-4.206-5.5-2.589-7.118-1.618-1.941 1.294-3.882 4.206-1.293 7.764l9.058 13.265-8.088 5.5-16.5-23.94 7.765-5.5.647-.324 2.265 2.912c0-2.265.323-5.824 4.853-9.059m-19.736 28.47c-.97-.647-3.882-2.588-7.44 0s-1.942 6.146-1.618 7.117zm659.338-43.999-13.59 20.381c-3.23 4.853.65 8.736 2.59 10.03s6.79 3.234 10.03-1.618l13.59-20.382 9.05 6.147-13.58 20.059c-8.09 11.97-18.77 7.441-24.59 3.558-6.79-4.529-13.91-12.617-6.15-24.264l13.59-20.058zm-613.071-1.942c5.823-3.558 12.941-5.823 17.146.971l8.735 14.559c.647.97 1.294 1.618 2.589 1.618v.646c.318.003-8.413 5.5-8.413 5.5h-.323c-.97-.647-1.617-1.294-2.264-2.264-.324 2.588-1.618 5.823-6.794 9.058-4.206 2.588-9.706 3.882-13.588-2.588-3.883-6.147.647-10.029 9.058-16.823 1.618-1.618 3.559-2.912 2.588-4.529-1.294-2.265-3.882-.647-4.852 0-4.853 2.911-4.206 4.206-3.559 5.5l-8.088 4.852c-1.294-2.911-4.206-9.059 7.765-16.5m554.187-9.382c7.118-12.617 18.764-13.911 27.824-8.735 12.62 7.117 9.38 18.764 8.41 21.676l-9.38-5.176v-.324c1.62-4.529-1.3-6.794-3.88-8.088-4.21-2.588-8.74-1.617-13.268 6.471-5.499 9.382.647 12.94 2.588 13.911 1.94.97 5.18 2.588 9.06-.971l-5.5-3.234 3.88-6.794 14.88 8.411-10.67 18.765-6.47-3.56 1.29-3.559c-1.94.647-6.15 1.942-12.616-1.617-11.323-6.47-11.647-17.794-6.148-27.176m-541.894 22.324c-.971 1.294-1.294 1.617-3.559 3.881-2.588 2.588-4.205 3.883-3.235 5.824.97 1.617 3.559.323 4.206 0 2.588-1.618 5.176-4.853 3.235-8.088l-.647-.971zm27.498-.971-8.736 4.852-13.911-25.557 8.736-4.854zm12.624-7.765c2.911 5.824-2.588 9.059-5.823 11l-1.619-2.912c2.912-1.617 3.559-2.911 2.913-4.852l-4.207 2.264v-.324l-4.529-8.734 9.059-4.53zm479.132-14.235-3.882 8.088c-2.588 5.823-8.735 3.559-12.294 1.941l1.294-2.911c3.235 1.294 4.529.97 5.5-.647l-4.206-1.942 4.206-8.734zm-7.121-23.294-11.324 26.529-9.058-3.883 11.323-26.528zm-451.96-15.205c13.587-5.5 20.705 4.206 22.323 6.471l-10.029 4.206.646-.324c-2.588-3.882-6.147-3.235-9.059-1.941-4.529 1.941-6.469 5.824-2.911 14.559 4.206 10.028 10.353 7.44 12.617 6.469 2.265-.97 5.177-2.264 4.53-7.763l-5.823 2.588-2.913-7.118 15.53-6.47 8.088 19.734-6.794 2.912-1.942-3.235c-.647 1.941-1.941 6.147-9.058 9.058-11.97 4.853-21.029-1.941-25.235-11.97-5.499-13.264.648-23.294 10.03-27.176m-47.88 32.676-8.736 4.853-3.882-7.118 8.735-4.852zm455.193-26.204c1.294-2.589 4.53-9.059 17.794-3.883 6.47 2.264 12.618 6.794 9.706 13.912l-5.823 15.852a4.5 4.5 0 0 0 0 2.912v.647l-9.383-3.329c0-1.248.009-2.195.324-3.142-2.264 1.294-5.5 2.589-11.647 0-4.529-1.617-9.059-5.176-6.471-12.294 2.588-6.794 8.089-5.823 18.765-3.235 2.264.647 4.529.97 5.176-.971.971-2.264-1.941-3.558-2.912-3.882-5.499-1.94-5.823-.647-6.47.647zm12.294 26.111v.094l-.646-.324zm-359.106-53.288 7.44 22.97c4.529 13.911-5.5 19.412-12.294 21.676-7.764 2.588-18.44 3.235-22.97-10.029l-7.441-22.971 10.353-3.558 7.764 23.294c1.941 5.5 7.442 4.853 9.383 4.206s6.793-3.559 5.176-9.059l-7.765-23.294 10.354-3.558zm357.489 40.44c-3.559-.647-5.5-.97-6.471.971-.647 1.941 1.942 2.912 2.912 3.235 2.912.971 7.117.971 8.411-2.588v-.971c-1.354-.003-1.845-.045-4.852-.647m-32.028-29.117h.324l-.971 3.559c1.941-1.294 4.853-3.235 10.353-1.618 1.294.324 10.352 3.236 6.794 13.912l-5.5 17.794-9.382-2.913 4.852-15.528c1.618-4.852-1.293-6.147-2.911-6.471-2.264-.647-5.5-.323-6.794 3.882l-4.853 15.206-9.382-2.912 8.412-27.822zm-272.731 16.499-10.352 2.588-21.03-19.088 5.824 22.648-10.353 2.587-9.382-38.499 10.353-2.588 21.029 19.087-5.823-22.646 10.352-2.588zm226.148-13.264c2.265-9.058 9.706-13.911 18.764-11.646 13.911 3.235 11.97 16.175 11.323 21.028l-21.029-5.176c-1.294 5.824 2.589 7.118 4.53 7.765 3.235.647 4.529-.648 5.499-1.618l9.706 2.265c-.97 1.294-1.94 2.912-3.881 4.206-1.942 1.294-6.148 3.559-12.942 1.941-8.088-1.941-14.234-8.735-11.97-18.765m117.11 10.999-3.235 7.442-9.059-3.883 3.235-7.44zm-151.081-32.674.323.647-.646 4.529c3.235-5.176 8.411-4.529 9.058-4.206 5.176.971 5.823 4.853 6.147 6.471.97-1.294 3.559-4.853 9.382-3.883 4.206.647 8.411 4.206 7.118 12.617l-3.236 18.442-9.705-1.618 2.911-16.824c.324-2.587 0-4.529-2.264-4.852-2.265-.324-3.559 1.618-4.206 4.206l-2.911 16.499-9.707-1.617 2.913-17.147c.323-2.264-.001-4.205-2.265-4.852-2.588-.324-3.883 1.941-4.206 4.529l-2.588 16.176-9.706-1.618 4.852-28.793zm-161.443-1.619-14.881 24.265.323.323 19.088-3.235 1.618 9.059-33.647 5.5-1.618-9.059 14.883-24.265-17.794 2.912-1.618-9.058 32.029-5.5zm38.827-3.881-20.705 1.941.646 6.471 17.794-1.618.971 8.412-17.794 1.617.647 7.441 21.031-2.231.968 8.701-32.352 3.235-3.882-39.469 31.705-3.236zm76.997 15.852c.97-10.999 9.382-14.881 17.146-13.911 8.088.647 15.205 6.147 14.235 16.823s-9.059 14.882-17.147 13.911c-7.764-.647-15.205-5.823-14.234-16.823M745.84 158c.005.334 6.113 14.478 6.147 14.557l7.441-13.587h12.618c0 .323-14.507 24.502-14.559 24.587l-.647 14.882-.323.325h-11.324c0-.323.645-15.478.647-15.53L733.223 158zm118.734 32.999c-4.206-.971-6.147 2.265-6.794 3.235l11.324 2.588c0-1.294-.324-4.852-4.53-5.823m-80.561-12.941c-4.853-.323-6.147 4.53-6.471 7.765 0 1.295-.646 7.764 4.854 8.411 5.176.324 6.146-5.5 6.146-7.441 0-2.265.323-8.087-4.853-8.735zm-90.906 12.651-.003-.033h.324zm16.176-17.504c3.882 0 7.117 2.912 7.117 6.794s-2.911 7.117-6.794 7.117-7.117-2.912-7.117-6.794 2.912-7.117 6.794-7.117"/></svg>