<svg xmlns="http://www.w3.org/2000/svg" width="1470" height="1475" fill="none" viewBox="0 0 1470 1475"><path fill="red" d="M708.19 1143.78c9.7.49 13.58 8.25 13.095 16.25-.727 10.91-8.003 15.52-15.763 15.03-10.911-.72-12.367-9.7-12.852-11.64l7.795.48c.555 3.42 2.927 3.89 5.3 4.13 3.637 0 6.305-1.7 6.79-8.73.485-8.24-4.607-8.49-6.305-8.49s-4.365 0-5.577 3.64h4.849c0 .25-.242 6.06-.242 6.06l-12.61-.72.97-16.01h5.578v3.15c.97-.97 3.395-3.39 8.972-3.15m48.256 30.31c.242 0-7.212.48-7.274.49v-6.06h-.243l7.517-.49zm-95.547-23.03c1.455-10.92 10.186-11.16 15.521-10.43 6.062.73 13.58 3.88 12.125 14.31l-2.425 17.94-8.245-1.21 2.425-18.19c.485-4.36-3.396-5.58-4.851-5.82-1.698 0-5.819 0-6.304 4.37l-2.425 18.18-8.245-1.21zm-21.336-16.49 8.003 19.64 3.395-17.22 8.003 1.7-6.306 29.1-8.002-1.7-8.003-19.64-3.394 17.22-8.003-1.7 6.305-29.1zm116.883 31.52-7.517.49-.97-21.83 7.518-.48zm17.218-23.76c3.638-.25 7.76.72 8.245 6.06.485 5.58-3.638 6.55-11.64 8.49-1.698.48-3.395.72-3.153 2.18 0 1.94 2.425 1.7 3.153 1.7 4.364-.49 4.365-1.46 4.123-2.43l7.032-.73c0 2.43-.001 7.52-10.67 8.49-5.093.49-10.67-.48-11.155-6.3l-1.212-12.61c0-.73-.243-1.46-1.213-1.94v-.49l7.76-.73.243-.24c.485.73.727 1.46.727 2.43 1.213-1.46 2.91-3.4 7.76-3.88m-72.991 21.58-.208-.01-.035-.23zm107.913-4.12-7.033 1.21-.242.24-.486-2.67c-.727 1.46-2.182 3.88-6.304 4.37-.971 0-8.003 1.21-9.215-7.28l-2.183-13.82 7.275-1.21 1.94 12.12c.485 3.88 2.91 3.64 4.123 3.4 1.697-.24 3.879-1.46 3.394-4.85l-1.939-11.88 7.274-1.22zm-178.968-27.41-1.94 6.55-17.945 11.64 12.853 3.88-1.94 6.55-23.523-6.79 1.94-6.55 17.945-11.64v-.24l-13.822-4.12 1.94-6.55zm188.183 2.67c6.062-1.45 12.61 1.21 14.307 8.73 1.455 6.79-2.182 12.61-8.971 14.07-10.67 2.18-13.339-6.79-14.551-10.43l15.763-3.4v-.24c-.97-4.36-4.122-4.12-5.578-3.64-2.424.49-2.909 1.94-3.152 2.91l-7.275 1.7c0-1.21.485-2.42 1.455-4.12.727-1.46 2.91-4.37 8.002-5.58m-43.653 14.07c0-1.46-2.181-1.46-2.909-1.22-2.425 0-5.093 1.7-4.85 4.37v.97h.242c.97-.73 1.213-.73 3.638-1.21 2.667-.73 4.122-1.22 3.879-2.91m42.926 1.21h-.243c.485.73 1.698 3.15 5.093 2.42 3.152-.72 3.395-3.39 3.638-4.36zm50.682-6.55-6.305 1.94v.97l-1.213-3.39c-.485 4.6-4.122 5.57-4.849 5.82-3.638 1.21-5.578-1.46-6.306-2.43 0 .97-.97 4.37-4.85 5.58-3.152.97-7.275 0-8.972-6.31l-3.88-13.58 7.032-2.18 3.638 12.37c.485 1.7 1.697 2.91 3.152 2.42 1.455-.48 1.94-2.18 1.455-4.12l-3.637-12.12 7.033-2.19 3.637 12.37c.485 1.7 1.455 2.91 2.91 2.43 1.939-.49 1.94-2.67 1.455-4.37l-3.395-11.88 7.032-2.18zm-123.433-.97c-2.425 0-3.395.73-3.395 2.18h3.637l-.242.25v7.27h-7.517v-6.79c-.243-4.85 4.607-5.33 7.517-5.33zm-142.107-18.43-10.427 27.89-22.31-8.25 2.182-6.06 14.792 5.34 1.698-4.61-12.61-4.61 2.183-5.82 12.61 4.61 1.939-5.09-15.035-5.58v-.24l2.183-6.07zm302.154-5.33 16.733 12.85-8.488 3.88-8.972-7.52-.486 11.64-8.487 3.88 1.697-21.1-4.607-10.42.242-.25 7.761-3.39zm-30.308-.49c5.577-2.18 12.367-.97 15.277 6.79s-1.455 13.1-7.032 15.04c-5.578 2.18-12.368.97-15.278-6.79s1.213-12.86 7.033-15.04m8.002 8.97c-.242-.97-2.182-5.33-6.062-3.88-3.637 1.46-2.425 5.58-1.697 7.28.485 1.45 2.425 5.58 6.062 4.12 3.395-1.21 2.667-4.85 1.697-7.52m-333.685-26.19-5.093 9.95.485 21.09-8.245-4.36v-11.63c-.2.31-8.972 6.78-8.972 6.78l-8.245-4.37 17.702-11.64 4.943-9.65zm9.461 19.89c1.212-2.67 4.365-3.88 6.79-2.67 2.667 1.21 3.88 4.37 2.668 6.79-1.213 2.67-4.365 3.88-6.79 2.67-2.668-1.21-3.88-4.12-2.668-6.79m408.855-15.04-20.37 12.37-3.394-5.58 13.337-8-2.667-4.36-11.398 7.03-3.153-5.34 11.398-7.03-2.91-4.61-13.823 8.25-3.395-5.58 20.856-12.61zm-43.405.49c2.425-1.21 5.82-.49 7.032 2.18 1.455 2.67.243 5.82-2.182 7.03-2.425 1.22-5.82.49-7.033-2.18-1.455-2.67-.242-5.82 2.183-7.03m-414.678-15.28c4.123-7.03 10.914-7.03 16.006-3.88s8.487 8.97 4.122 16.01c-4.365 7.03-11.155 7.03-16.248 3.88h.243c-5.092-3.16-8.488-8.98-4.123-16.01m469.721-21.1-2.183 21.34 10.912-7.76 3.88 5.58-19.884 14.07-3.88-5.58 2.182-21.34-11.882 8.24-3.88-5.57 20.855-14.55zm-456.625 21.59c-3.395-1.94-5.82 1.69-6.79 3.15-.728 1.45-2.911 5.33.484 7.27l.244.25c3.152 1.94 5.577-.98 6.79-3.4.485-.73 2.908-5.09-.728-7.27m-28.859-24.5-7.275 10.67c-.97 1.46-1.212 3.16 0 3.88 1.455.97 2.91 0 4.122-1.45l7.276-10.43 6.062 4.12-7.275 10.67c-.97 1.46-1.455 2.91 0 3.88 1.697 1.22 3.153 0 4.365-1.69l7.032-10.19 6.063 4.12-12.367 17.95-5.335-3.88-.728.24 1.94-2.91c-3.88 2.43-7.033.24-7.518 0-3.152-2.18-2.425-5.33-2.183-6.3-.97.48-4.122 2.18-7.516-.25-2.668-1.94-4.365-5.57-.728-10.91l8.002-11.64zm48.105 30.12-.093-.05.243-.24zm475.696-28.66-6.3 5.09-20.373-6.06 11.393 13.34-6.301 5.09-18.915-23.04 6.305-5.09 20.371 6.06-11.398-13.34 6.305-5.09zm-549.023-17.7c1.697-.25 5.335-.49 9.215 2.91 4.85 3.88 6.79 10.67 1.94 16.49-4.365 5.33-11.155 6.3-16.49 1.69-8.488-6.79-2.91-14.79-.97-17.94l12.61 10.18c2.667-3.39.485-5.82-.485-6.54-1.94-1.46-3.153-.97-4.123-.73l-5.82-4.61c1.212-.73 2.183-1.21 4.123-1.45m-3.396 11.39c-.242.73-1.212 3.4 1.213 5.34 2.425 2.18 4.85.48 5.577 0l-6.79-5.58zm556.789 2.43-.25-.24.01-.01zm-10.92-31.77c4.61-4.36 11.64-8 18.68-.48l12.36 13.09-6.06 5.58-12.61-13.34c-2.91-3.15-6.55-.97-7.76 0-1.21 1.21-3.63 4.61-.48 7.76l12.61 13.34-6.06 5.57-12.13-12.85c-7.52-8-2.43-14.79 1.45-18.67m-555.08 2.67-8.246 8.97c-2.667 2.91-.97 4.61 0 5.34 1.213 1.21 3.638 1.93 5.821-.25l8.244-8.97 5.336 4.85-14.793 16.01-5.218-4.75 1.58-1.8c-1.697.24-4.365.73-7.517-2.18-.728-.73-5.82-5.34 0-11.64l9.458-10.43zm-8.856 21.2-.117.14v-.24zm-14.428-44c.005-.22 4.73 4.71 5.283 5.28-.256.85-.708 1.32-1.161 2 1.94 0 4.608 0 7.76 3.64 2.668 2.66 4.366 6.54.243 10.42-3.88 3.88-7.275 1.21-13.823-3.88-1.455-.97-2.667-2.18-3.637-1.21-1.455 1.46 0 2.91.728 3.64 3.152 3.15 3.88 2.42 4.607 1.7l5.092 5.09c-1.94 1.45-5.82 4.6-13.337-3.16-3.637-3.63-6.305-8.48-2.182-12.6l9.214-8.74c.485-.48.97-1.21.728-2.18zm600.434-2.66c6.55-7.28 14.79-5.58 20.86 0 8 7.27 7.03 16 1.94 21.82-7.28 8-15.28 3.64-17.22 2.67l5.33-6.07h.25c3.15 1.94 5.09 0 6.79-1.45 2.42-2.67 2.42-6.06-2.67-10.67-6.06-5.58-9.46-1.7-10.67-.48-1.21 1.21-2.67 3.15-.73 6.79l3.15-3.64 4.37 3.88-8.49 9.45-11.88-10.91 3.64-4.12 2.18 1.7c0-1.46-.49-4.85 3.15-8.97m-619.591 16.24-4.608 4.13-4.85-5.58 4.608-4.12zm25.22-1.21c-1.698-1.7-4.366-2.91-6.548-.97l-.728.73c1.213.48 1.213.48 3.396 1.94 2.182 1.69 3.395 2.42 4.607 1.45s-.242-2.66-.727-3.15m-7.518-14.55-16.248 14.31-4.849-5.58 16.248-14.31zm6.79 7.52-.052-.06c.018-.06.036-.12.052-.19zm-19.398-21.101c3.88-3.152 7.033.486 8.973 2.668l-1.941 1.693c-1.697-1.935-2.667-2.178-3.88-1.45l2.425 2.67h-.484l-5.579 4.6-4.849-5.82zm669.057-5.819-4.36 6.063-4.85-3.638 4.36-6.063zm-691.611-24.977-2.182 1.94c1.455 0 4.85.485 8.002 5.093 5.578 8.002 2.182 15.762-4.608 20.37-8.972 6.304-17.217 3.394-21.582-2.91-6.305-8.973-.242-15.763 1.213-17.46l4.607 6.547h.485c-2.425 2.667-1.455 4.85 0 6.79 2.182 2.91 5.335 3.88 11.155 0 6.789-4.607 3.638-8.972 2.668-10.185-.97-1.212-2.425-3.395-6.548-2.182l2.667 3.879-4.85 3.395-7.275-10.427 13.096-9.215zm659.361 15.277c-1.46 2.182-1.46 3.153-.49 4.123l2.19-2.91v.242l5.82 4.365-4.61 6.063-5.34-4.122c-3.88-2.91-1.21-7.033.49-9.215zm25.71 4.85-4.37 6.062-17.7-12.853 4.36-6.062zm-8.01-28.615c1.94-3.152 5.34-5.577 9.94-2.668 4.61 3.153 2.91 7.033-.72 14.308-.73 1.455-1.46 3.153-.24 3.881 1.69.97 2.91-.728 3.39-1.455 2.43-3.638 1.46-4.123.49-4.851l3.88-6.062c1.69 1.455 5.82 4.85 0 13.58-2.91 4.365-7.04 8.002-11.89 4.85l-10.67-7.033c-.72-.485-1.45-.727-2.18-.242h-.48c0-.243 4.36-6.79 4.36-6.79v.242c.97 0 1.46.243 2.43.728-.49-1.698-.97-4.608 1.69-8.488m-706.158-16.732c9.458-5.577 15.035.97 17.945 5.577 3.152 5.335 5.335 13.095-3.638 18.43l-15.519 9.216-4.123-7.034 15.762-9.457c3.88-2.182 2.183-6.305 1.455-7.517-.727-1.455-3.637-4.365-7.274-2.183l-15.763 9.457-4.123-7.032-.242-.242zM1078 962.147c-1.21-.727-2.42.728-2.91 1.455-1.21 1.94-1.94 4.851.49 6.548l.73.486h.24c0-1.213.24-1.456 1.21-3.638.97-2.425 1.7-3.881.24-4.851m29.59-19.642-3.48 6.022-2.34-1.172c.48 1.455 1.7 4.123-.49 7.76-.48.729-3.88 7.032-11.39 2.667l-12.13-7.032 3.64-6.305 10.43 6.063c3.39 1.939 4.6-.001 5.33-.971.97-1.455 1.21-3.88-1.7-5.577l-10.42-6.063 3.63-6.304zm-3.4 6.062-.24.242.16-.282zm-738.411-34.192-10.427 18.43 15.52-8.002 3.638 7.274-26.676 13.338-3.637-7.275 10.427-18.43-15.52 8.003-3.637-7.276 26.675-13.338zm728.221 4.85c2.91-5.577 8.74-8.972 15.77-5.578 6.06 3.153 8.49 9.458 5.33 15.763-4.85 9.7-13.82 6.063-17.22 4.851l7.28-14.551c-3.88-1.94-5.82.728-6.3 1.94-.97 2.183-.25 3.396.24 4.366l-3.4 6.546c-.97-.97-1.7-1.939-2.42-3.636-.49-1.455-1.7-5.093.72-9.701m11.65 10.427c.97 0 3.63.485 5.09-2.425 1.45-2.909-.49-4.85-1.21-5.335zm-744.481-24.734-6.305 2.667-20.37-6.79 5.093 12.368-6.306 2.667-9.215-22.553 6.305-2.667 20.128 6.79h.242l-5.577-13.338 6.305-2.667zm771.401-18.431-2.36 5.901-2.74-1.05c3.16 3.395 1.94 6.79 1.46 7.517-1.46 3.637-4.61 3.395-5.82 3.395.73.728 2.91 3.395 1.21 7.517-1.21 2.91-4.61 5.578-10.43 3.153l-13.09-5.335 2.67-6.79 11.88 4.85c1.7.728 3.15.485 3.88-.97s-.49-2.91-2.43-3.637l-11.64-4.851 2.67-6.79 11.88 4.851c1.7.727 3.16.727 3.88-.728.73-1.94-.72-3.152-2.42-3.879l-11.4-4.609 2.67-6.789zm-1.94 6.063h-.49l.07-.162zm-779.885-13.823-28.372 9.457-7.518-22.551 6.305-2.183 4.851 14.792 4.849-1.455-4.122-12.609 5.82-1.941 4.123 12.611 5.092-1.698-5.092-15.278 6.304-2.182zm765.575-13.822c1.94-5.577 6.79-10.186 14.79-7.761 8 2.668 9.22 9.216 7.52 14.793v.243c-1.94 5.82-7.03 10.185-14.79 7.517-7.76-2.425-9.22-9.214-7.52-14.792m12.37-.485c-.97-.243-5.58-1.697-6.79 2.182-1.21 3.638 2.91 5.335 4.36 5.82 1.46.485 5.82 1.698 7.03-2.182v.242c1.22-3.395-2.18-5.092-4.6-6.062m25.22-18.915-11.4 2.182 8.73 7.518-2.42 8.973-15.28-14.55-10.86-2.895 2.13-8.018 10.91 2.91 20.61-5.093zm-828.875-3.153c2.91-.727 5.577.971 6.305 3.638.727 2.668-.97 5.577-3.638 6.305-2.91.727-5.577-.97-6.305-3.638-.727-2.667.971-5.577 3.638-6.305m797.645 4.381-.06.227v-.242zm-800.552-30.329 10.921-2.138 1.688 8.443-11.154 2.182-16.248 13.581-1.697-9.215 9.215-7.033-11.156-2.91-1.697-9.215zm816.012 2.91c.49-2.667 3.4-4.607 6.06-4.122 2.91.485 4.61 3.395 4.13 6.063-.49 2.667-3.16 4.607-6.07 4.122s-4.6-3.395-4.12-6.063m-805.091-5.048-.009-.044h.242zm-15.529-29.144c8.245-1.213 12.367 4.123 13.094 10.185.728 5.82-1.697 12.125-9.942 13.337-8.245 1.213-12.367-4.364-13.095-10.184-.727-6.063 1.698-12.126 9.943-13.338m847.05-.242-3.15 23.764-6.55-.969 1.94-15.521-4.85-.727-1.69 13.338-6.31-.728 1.7-13.338-5.34-.727-2.18 16.005.24.243-6.54-.97 3.15-24.25zm-839.533 11.155c-.485-3.88-4.85-3.638-6.548-3.395-1.697 0-6.062 1.212-5.335 4.849v.243c.485 3.638 4.365 3.637 6.79 3.395.97 0 5.82-.97 5.093-5.092m1.457-38.315-12.852.727c-1.94 0-3.153.97-3.153 2.425 0 1.697 1.697 2.425 3.637 2.183l12.61-.728.486 7.275-12.853.728c-1.697 0-3.152.727-3.152 2.425 0 1.94 2.182 2.425 3.88 2.425l12.367-.728.485 7.275-21.825 1.455-.485-6.547.243.243 3.394-.486c-4.364-1.454-4.607-5.334-4.607-6.062-.243-3.88 2.668-5.093 3.638-5.578-.97-.485-4.123-1.94-4.366-6.063.001-3.152 1.699-7.032 8.003-7.274l14.065-.97zm817.466-4.123 15.28 15.035.97-13.338 6.79.485-1.46 24.25-6.79-.485-15.27-15.034h-.25l-.97 14.549-6.79-.485 1.7-25.462zm22.8-23.038-17.22 12.125 17.46-.485v8.003l-29.59.484v-8.002h-.24l17.46-12.125-17.46.485v-8.002l29.59-.485zm-849.485 10.665c4.141-.115 4.608-3.174 4.608-4.602 0-2.425-1.213-3.153-2.183-3.638v-7.517c1.455.485 2.425.97 3.638 2.182 1.212 1.213 3.638 3.88 3.638 8.973 0 6.305-4.123 11.883-11.64 11.883-6.79 0-11.641-4.851-11.641-11.883 0-10.912 9.7-11.398 13.58-11.641zm-5.092-8.698c-.95.172-3.174 1.252-3.395 4.338 0 3.152 2.667 4.123 3.395 4.365zm-7.275-25.005c0-.97.485-8.002 8.973-7.517l14.065.97-.485 7.275-12.125-.728c-3.88-.242-4.123 1.94-4.365 3.395 0 1.697.727 4.122 3.88 4.365l12.126.728-.486 7.275-21.825-1.455.485-7.275v.242h2.667c-1.212-.97-3.152-2.91-2.91-7.275m860.152-10.427-18.43 1.455c-4.36.485-4.85 4.607-4.61 6.062 0 1.698 1.22 5.578 5.58 5.335l18.43-1.455.73 8.245h-.24l-17.95 1.455c-10.91.97-13.09-7.517-13.58-12.852-.48-6.305.97-14.065 11.4-15.035l17.94-1.455zm-857.482-12.852c.728-5.092 2.668-10.185 8.488-9.458l12.61 1.697c.727 0 1.697 0 2.182-.727h.486l-.97 7.761h-.243c-.97.484-1.455.484-2.425.242 1.213 1.455 2.668 3.637 2.183 8.245-.485 3.637-2.425 7.517-7.76 6.79-5.578-.728-5.578-5.093-5.578-13.095 0-1.697 0-3.395-1.455-3.638-1.94-.242-2.182 1.941-2.182 2.911-.485 4.364.485 4.365 1.697 4.607l-.969 7.032c-2.183-.485-7.276-1.697-6.064-12.367m12.946-1.213c.39 1.016.392 1.383.392 3.638 0 2.667.243 4.365 1.94 4.607 1.455 0 1.697-1.94 1.94-2.668.242-2.425-.485-5.334-3.395-5.577zm823.446-24.977c10.67-1.698 16.97 4.607 18.18 12.125 1.7 10.912-6.79 14.307-8.73 15.035l-1.21-8.003v-.485c3.4-1.213 3.4-3.881 2.91-6.063-.48-3.637-3.15-5.82-9.94-4.607-8 1.212-7.28 6.305-7.03 8.003.24 1.697.72 4.122 4.85 4.849l-.73-4.849 5.82-.97 1.94 12.609-16.01 2.668-.97-5.335 2.67-.727c-1.21-.728-4.12-2.668-4.85-8.003-1.45-9.7 5.09-15.035 13.1-16.247m-811.172 8.244-1.213 7.275-21.34-3.638 1.213-7.275zm-23.523-3.88-1.213 7.275-6.062-.969 1.213-7.276zm24.738-7.275c4.849.971 4.122 5.82 3.637 8.488l-2.424-.486c.484-2.424-.001-3.394-1.455-3.879l-.728 3.637v-.242l-7.275-1.455 1.455-7.518zm799.767-11.155-6.55 1.698c-4.85 1.213-6.06-3.395-6.79-6.305l2.42-.485c.73 2.425 1.46 3.153 2.91 2.911l-.97-3.396v-.242l7.04-1.698zm-808.742-27.644-.242-.243c-3.637-.243-4.608 1.94-5.335 4.365-.97 3.637.485 6.547 7.032 8.487 7.76 2.183 9.215-2.667 9.7-4.122.485-1.697.97-4.122-2.424-6.305l-1.456 4.608-5.577-1.699 3.637-12.125 15.521 4.366-1.456 5.335-2.667-.485c.728 1.213 2.425 4.123.97 9.457-2.667 9.215-10.913 11.398-18.673 9.215-10.427-2.91-13.337-11.397-11.155-18.672 3.152-10.427 12.125-9.943 14.308-9.943zm819.172 12.609-20.86 5.82-1.94-7.275 20.86-5.819zm8-2.183-5.82 1.699-1.94-7.276 5.82-1.697zm-24.01-27.402c2.18-.485 7.28-1.696 10.67 8.488 1.7 4.85 1.94 10.428-3.64 12.368l-12.12 3.879c-.73 0-1.46.728-1.7 1.456h-.48l-2.43-7.276c.73-.727 1.21-.969 2.18-1.212-1.69-.727-4.12-2.183-5.57-6.548-1.22-3.637-1.22-7.759 4.12-9.457 5.33-1.697 7.27 2.182 10.67 9.457.73 1.455 1.45 3.153 2.91 2.668 1.94-.485 1.21-2.667.97-3.637-1.46-4.122-2.43-3.881-3.4-3.396zm-2.67 11.883c-1.21-2.425-2.18-3.88-3.63-3.152-1.46.485-.97 2.424-.73 3.152.73 2.182 2.67 4.607 5.33 3.638h.97l.25-.243c-.73-.97-.97-1.213-2.19-3.395m-779.637-31.283c10.184 3.88 8.73 12.367 6.79 17.46-2.183 5.82-6.791 12.368-16.734 8.73l-16.974-6.305 2.91-7.76 17.218 6.548c4.122 1.454 6.304-2.182 6.79-3.395.485-1.455 1.212-5.578-2.911-7.033l-17.217-6.547 2.91-7.761.242-.242zm781.657-.891-2.26 1.134c1.46.485 4.12 1.212 5.82 5.335.24.97 2.91 7.517-5.09 10.67l-13.1 5.093-2.67-6.791 11.4-4.365c3.64-1.455 2.91-3.637 2.43-4.849-.73-1.698-2.43-3.395-5.34-2.183l-11.15 4.365-2.67-6.79 20.13-8.003zm-757.651-23.359-3.395 7.275-20.855 3.396 16.005 7.274-3.394 7.275-26.918-12.61 3.394-7.274 20.856-3.396-16.005-7.275 3.394-7.275zm757.811 23.765-.16-.406.16-.079zm-24-26.432c6.3-2.91 12.61-.728 15.76 5.577 4.61 9.7-3.64 14.55-7.03 16.49l-6.79-14.792c-3.88 1.94-2.91 4.85-2.43 6.305.97 2.182 2.43 2.425 3.4 2.425l3.15 6.79c-1.45 0-2.42 0-4.36-.485-1.7-.485-4.85-1.94-7.04-6.548-2.66-5.82-1.45-12.61 5.34-15.762m11.15 8.003c-1.45-2.91-4.12-2.669-5.09-2.426l3.64 8.003.24-.242c.73-.485 2.67-2.426 1.21-5.335m-15.52-37.588h.97l-2.91 1.697c4.61-.485 6.31 2.668 6.79 3.396 1.94 3.394 0 5.819-.97 6.546.97 0 4.61.001 6.55 3.638 1.7 2.91 1.46 7.033-4.12 10.186l-12.37 6.79-3.64-6.306 11.16-6.305c1.7-.97 2.42-2.182 1.7-3.637-.73-1.455-2.67-1.455-4.37-.486l-10.91 6.063-3.64-6.305 11.16-6.305c1.45-.97 2.66-1.94 1.69-3.395-.97-1.697-2.91-1.212-4.6-.484l-10.92 6.062-3.63-6.306 18.91-10.67zm-736.227-2.91 7.275 20.127 7.033-12.611 6.062 3.396-12.368 22.309-6.062-3.394-7.275-20.128-6.548 11.64-6.062-3.395 11.883-21.34zm15.519-24.25-8.488 13.094 4.123 2.668 7.275-11.155 5.335 3.395-7.275 11.155 4.607 2.91 8.549-13.298 5.516 3.598-13.337 20.37-24.978-16.247 13.095-20.128zm694.518 4.849c6.79-4.607 13.1-1.454 16.25 3.396 3.4 5.092 3.64 11.882-3.15 16.247-6.79 4.607-12.85 1.698-16.25-3.395-3.15-4.85-3.64-11.64 3.15-16.248m11.64 6.548c-1.94-2.91-5.33-1.455-7.51 0-.73.485-4.86 3.395-2.43 6.79 2.18 3.153 6.06.97 7.27 0 1.46-.97 4.86-3.638 2.67-6.79m-692.032-2.628-.062-.04.243-.242zM1078 476.176l-5.33 10.184 11.4-2.181 5.57 7.516-20.85 2.91-8.97 6.79-5.1-6.79 8.98-6.79 8.73-19.157zm-687.969 11.397c1.698-2.182 4.851-2.909 7.276-1.212h.242c2.425 1.698 2.909 5.092.97 7.275-1.698 2.424-5.092 2.91-7.275 1.213-2.425-1.698-2.668-5.093-1.213-7.276m25.46-20.127 8.73 7.275.242.243-5.577 6.547-8.73-7.275-20.855-4.123 6.062-7.274 11.156 2.909-4.608-10.67 6.063-7.274zm632.929-2.91c2.18-1.94 5.57-1.456 7.27.484 1.94 2.183 1.7 5.578-.73 7.276v.242c-2.18 1.94-5.57 1.697-7.27-.728-1.94-2.182-1.7-5.576.73-7.274m5.82-17.218-4.61 4.608-10.91-11.398-3.64 3.395 9.21 9.7-4.6 4.365-9.22-9.7-3.88 3.88 11.04 11.515-4.49 4.49-16.98-17.46 21.59-20.613zm-633.415-1.94c4.123-4.365 10.67-6.305 16.49-.485 6.063 5.578 4.608 12.125.243 16.733-4.123 4.365-10.67 6.304-16.733.484-6.062-5.82-4.364-12.367-.242-16.732zm616.925 18.43-.12-.125.12-.118zm-605.527-13.337c-1.213-1.213-4.608-3.881-7.276-1.213-2.425 2.667.001 5.577 1.699 7.517.727.728 4.364 3.881 7.032.971 2.667-2.91-.243-6.063-1.455-7.275m17.217-32.981c2.425-2.182 6.548-2.909 10.67 1.698l9.458 10.427-5.335 4.851-8.73-9.458c-1.213-1.455-2.668-1.94-3.88-.728-1.212 1.213-.727 2.91.485 4.365l8.488 9.215-5.335 4.851-8.731-9.458c-1.212-1.213-2.425-1.94-3.88-.97-1.454 1.213-.485 3.153.728 4.608l8.245 9.214-5.335 4.851-14.55-16.006 4.85-4.364v-.243l2.425 2.425c-1.455-4.365 1.213-6.79 1.698-7.275 2.91-2.667 5.577-1.212 6.79-.727-.243-.971-1.213-4.366 1.939-7.276m584.19 8.731-4.61 5.092-21.1 2.425h.24l10.67 9.7-4.6 5.093-18.919-17.218 4.607-5.092 21.102-2.425-9.95-8.973 4.61-5.092zm-37.109-31.768-1.456 21.098 10.675-14.066 6.3 5.093-18.43 23.28-6.304-5.092 1.454-21.098-10.67 14.065-6.305-5.092 18.43-23.281zm-530.349 9.215c8.487-6.79 15.034.242 17.702 3.152l-12.489 10.088c2.634 3.198 5.471 1.542 6.427.825 1.939-1.455 1.697-2.91 1.455-3.88l5.82-4.608c.485 1.212.728 2.426.485 4.123 0 1.698-.728 5.335-4.85 8.487-4.85 3.88-11.883 4.366-16.491-1.697-4.365-5.335-3.637-12.125 1.941-16.49m23.765-17.217c.729-.485 6.548-4.607 11.398 2.425l8.002 11.64-6.063 4.123-7.032-9.943c-2.182-3.152-4.122-1.94-5.335-1.213-1.455.97-2.91 3.153-.97 5.821l6.791 9.942-6.063 4.122-12.368-17.944 5.82-4.123.485-.243 1.698 2.183c0-1.697.242-4.365 3.637-6.79m-14.792 21.34c-.728-.485-2.911-1.94-5.579 0s-1.454 4.607-1.212 5.335zM969.36 374.81l-10.184 15.278c-2.425 3.637.485 6.547 1.94 7.517s5.093 2.425 7.518-1.213l10.184-15.277 6.79 4.608-10.184 15.035c-6.063 8.972-14.066 5.578-18.431 2.668-5.092-3.395-10.427-9.458-4.607-18.188l10.185-15.035zm-459.537-1.455c4.365-2.667 9.7-4.364 12.853.728l6.548 10.912c.485.727.97 1.213 1.94 1.213v.485c.236.004-6.306 4.122-6.306 4.122h-.242a5.7 5.7 0 0 1-1.697-1.697c-.243 1.94-1.213 4.365-5.093 6.79-3.152 1.94-7.274 2.91-10.184-1.94-2.91-4.608.484-7.517 6.789-12.61 1.212-1.212 2.668-2.183 1.94-3.395-.97-1.698-2.91-.485-3.638 0-3.637 2.182-3.152 3.153-2.667 4.123l-6.062 3.637c-.97-2.183-3.153-6.79 5.819-12.368m415.402-7.033c5.335-9.457 14.064-10.427 20.854-6.547 9.457 5.335 7.033 14.064 6.306 16.247l-7.033-3.88v-.242c1.212-3.395-.97-5.092-2.91-6.062-3.152-1.94-6.548-1.213-9.943 4.849-4.122 7.033.485 9.701 1.94 10.428s3.88 1.94 6.79-.727l-4.122-2.425 2.91-5.093 11.155 6.305-8.002 14.065-4.851-2.667.97-2.668c-1.455.485-4.607 1.455-9.457-1.213-8.487-4.85-8.73-13.337-4.607-20.37m-406.186 16.734c-.727.97-.97 1.212-2.668 2.91-1.94 1.94-3.152 2.91-2.425 4.365.728 1.212 2.667.243 3.153 0 1.94-1.213 3.879-3.638 2.424-6.063l-.484-.727zm20.611-.728-6.547 3.638-10.428-19.159 6.548-3.636zm9.462-5.82c2.183 4.365-1.94 6.79-4.365 8.245l-1.212-2.183c2.182-1.212 2.668-2.183 2.183-3.638l-3.154 1.698v-.242l-3.394-6.548 6.79-3.395zm359.142-10.67-2.91 6.062c-1.94 4.365-6.548 2.668-9.215 1.455l.97-2.182c2.425.97 3.395.727 4.123-.486l-3.153-1.455 3.153-6.547zm-5.338-17.46-8.487 19.885-6.79-2.911 8.487-19.884zM564.142 336.98c10.184-4.122 15.519 3.152 16.732 4.85l-7.518 3.152.486-.242c-1.94-2.91-4.608-2.425-6.79-1.455-3.395 1.455-4.85 4.366-2.183 10.913 3.153 7.517 7.761 5.577 9.458 4.85s3.88-1.698 3.395-5.821l-4.366 1.941-2.181-5.335 11.639-4.851 6.063 14.793-5.093 2.183-1.455-2.425c-.485 1.455-1.455 4.608-6.79 6.79-8.972 3.637-15.762-1.455-18.915-8.973-4.122-9.942.485-17.46 7.518-20.37m-35.889 24.493-6.548 3.637-2.91-5.335 6.548-3.637zm341.198-19.642c.97-1.94 3.395-6.79 13.337-2.91 4.85 1.697 9.458 5.092 7.275 10.428l-4.365 11.881a3.37 3.37 0 0 0 0 2.183v.485l-7.032-2.496c0-.935.006-1.645.242-2.354-1.697.97-4.122 1.94-8.729 0-3.395-1.213-6.791-3.88-4.851-9.215 1.94-5.092 6.063-4.365 14.066-2.425 1.697.485 3.394.727 3.879-.727.728-1.698-1.455-2.668-2.182-2.911-4.123-1.455-4.365-.484-4.85.486zm9.215 19.571v.072l-.485-.244zM609.491 321.46l5.577 17.218c3.395 10.427-4.122 14.55-9.214 16.248-5.82 1.94-13.823 2.424-17.218-7.518l-5.577-17.218 7.759-2.668 5.821 17.461c1.455 4.122 5.577 3.638 7.032 3.153s5.092-2.668 3.88-6.79l-5.82-17.46 7.76-2.668zm267.962 30.313c-2.667-.485-4.122-.727-4.849.728-.485 1.455 1.455 2.182 2.182 2.425 2.183.727 5.335.727 6.305-1.941v-.73c-1.015-.002-1.383-.031-3.638-.482m-24.007-21.825h.243l-.727 2.667c1.455-.97 3.637-2.424 7.76-1.212.97.243 7.759 2.425 5.092 10.427l-4.123 13.338-7.032-2.183 3.638-11.639c1.212-3.638-.97-4.608-2.183-4.851-1.697-.485-4.122-.242-5.093 2.91l-3.637 11.398-7.032-2.183 6.304-20.854zm-204.429 12.366-7.76 1.941-15.763-14.308 4.365 16.976-7.76 1.939-7.033-28.857 7.76-1.941 15.763 14.308-4.365-16.975 7.76-1.94zm169.512-9.941c1.698-6.79 7.276-10.428 14.066-8.731 10.427 2.426 8.972 12.126 8.487 15.763l-15.763-3.88c-.97 4.365 1.941 5.336 3.396 5.821 2.425.484 3.394-.486 4.122-1.213l7.275 1.697c-.727.97-1.455 2.183-2.91 3.153s-4.608 2.667-9.7 1.454c-6.062-1.455-10.67-6.547-8.973-14.064m87.783 8.244-2.426 5.578-6.79-2.91 2.425-5.577zm-113.246-24.491.243.484-.486 3.396c2.425-3.879 6.304-3.396 6.79-3.154 3.88.728 4.365 3.638 4.608 4.851.727-.97 2.668-3.638 7.033-2.91 3.152.485 6.305 3.153 5.335 9.458l-2.426 13.822-7.274-1.213 2.182-12.609c.243-1.94 0-3.395-1.698-3.638s-2.667 1.213-3.152 3.153l-2.183 12.367-7.274-1.212 2.182-12.853c.243-1.697 0-3.152-1.698-3.637-1.94-.243-2.91 1.454-3.152 3.394l-1.94 12.125-7.275-1.212 3.638-21.583zm-121.012-1.214L660.899 333.1l.243.243 14.307-2.425 1.212 6.79-25.22 4.122-1.212-6.79 11.155-18.188-13.337 2.183-1.213-6.79 24.008-4.122zm29.102-2.909-15.519 1.455.484 4.849 13.338-1.211.728 6.304-13.338 1.213.485 5.577 15.765-1.673.725 6.523-24.25 2.426-2.91-29.586 23.765-2.425zm57.715 11.883c.728-8.245 7.033-11.156 12.853-10.428 6.062.485 11.397 4.608 10.67 12.61s-6.791 11.155-12.853 10.428c-5.82-.485-11.397-4.365-10.67-12.61M742.626 304c0 .242 4.607 10.913 4.607 10.913l5.578-10.186h9.458c0 .243-10.914 18.431-10.914 18.431l-.485 11.154-.242.244h-8.487c0-.243.485-11.641.485-11.641L733.168 304zm88.998 24.735c-3.152-.727-4.607 1.697-5.092 2.425l8.488 1.94c0-.97-.243-3.637-3.396-4.365m-60.386-9.7c-3.637-.242-4.607 3.395-4.849 5.82 0 .97-.486 5.82 3.636 6.305 3.88.243 4.609-4.122 4.609-5.577 0-1.698.242-6.063-3.638-6.548zm-68.139 9.482-.002-.024h.242zm12.125-13.12c2.91 0 5.335 2.183 5.335 5.093s-2.183 5.335-5.093 5.335-5.335-2.183-5.335-5.093 2.183-5.335 5.093-5.335"/></svg>