<svg xmlns="http://www.w3.org/2000/svg" width="1470" height="1479" fill="none" viewBox="0 0 1470 1479"><path fill="#6155f5" d="M690.348 1425.2c16.462.82 23.046 13.99 22.223 27.58-1.235 18.51-13.581 26.33-26.751 25.51-18.518-1.23-20.988-16.46-21.811-19.75l13.228.8c.942 5.82 4.968 6.61 8.995 7.02 6.174 0 10.701-2.89 11.524-14.82.823-13.99-7.819-14.4-10.7-14.4s-7.408 0-9.466 6.17h8.23c0 .41-.408 10.21-.411 10.29l-21.4-1.24 1.646-27.16h9.465v5.35c1.646-1.65 5.762-5.76 15.228-5.35m81.897 51.44c.405 0-12.304.83-12.347.83v-10.29h-.412l12.759-.82zm-162.153-39.09c2.469-18.52 17.286-18.93 26.34-17.7 10.288 1.24 23.046 6.59 20.577 24.28l-4.115 30.46-13.994-2.06 4.117-30.87c.823-7.4-5.762-9.46-8.232-9.87-2.881 0-9.877 0-10.7 7.4l-4.115 30.87-13.993-2.06zm-36.208-27.99 13.581 33.34 5.762-29.22 13.581 2.88-10.701 49.39-13.582-2.89-13.581-33.33-5.761 29.22-13.581-2.88 10.7-49.39zm198.361 53.5-12.759.83-1.645-37.04 12.758-.83zm29.222-40.33c6.173-.41 13.169 1.24 13.992 10.29.823 9.47-6.173 11.11-19.754 14.4-2.881.83-5.762 1.24-5.351 3.71.001 3.29 4.116 2.88 5.351 2.88 7.408-.82 7.408-2.47 6.996-4.12l11.935-1.23c0 4.11 0 12.76-18.109 14.4-8.642.83-18.107-.82-18.93-10.7l-2.058-21.4c0-1.23-.412-2.47-2.058-3.29v-.82l13.169-1.24.412-.41c.823 1.24 1.235 2.47 1.235 4.12 2.058-2.47 4.939-5.77 13.17-6.59m-123.877 36.63-.353-.02q-.032-.195-.059-.39zm183.142-7-11.934 2.06-.412.41-.823-4.52c-1.234 2.46-3.704 6.58-10.701 7.4-1.647 0-13.581 2.06-15.638-12.34l-3.704-23.46 12.346-2.06 3.293 20.58c.823 6.58 4.939 6.17 6.996 5.76 2.881-.41 6.585-2.47 5.762-8.23l-3.293-20.17 12.347-2.05zm-303.728-46.5-3.293 11.11-30.454 19.75 21.811 6.59-3.292 11.11-39.921-11.52 3.293-11.11 30.456-19.76v-.41l-23.459-7 3.292-11.11zm319.368 4.52c10.289-2.46 21.4 2.06 24.281 14.82 2.47 11.52-3.704 21.4-15.227 23.87-18.108 3.7-22.635-11.52-24.693-17.7l26.75-5.76v-.41c-1.646-7.41-6.995-7-9.464-6.17-4.116.82-4.939 3.29-5.351 4.94l-12.347 2.88c0-2.06.824-4.12 2.47-7 1.235-2.47 4.939-7.41 13.581-9.47m-74.083 23.87c0-2.46-3.704-2.46-4.938-2.05-4.116 0-8.642 2.88-8.231 7.41v1.64h.411c1.646-1.23 2.059-1.23 6.174-2.06 4.527-1.23 6.996-2.05 6.584-4.94m72.849 2.06h-.412c.823 1.24 2.881 5.35 8.642 4.12 5.35-1.24 5.762-5.76 6.174-7.41zm86.013-11.11-10.7 3.29v1.65l-2.057-5.76c-.824 7.82-6.997 9.46-8.232 9.87-6.173 2.06-9.465-2.46-10.7-4.11 0 1.65-1.647 7.41-8.232 9.47-5.35 1.64-12.346 0-15.227-10.7l-6.584-23.05 11.935-3.71 6.172 20.99c.823 2.88 2.882 4.94 5.351 4.12s3.293-3.71 2.47-7l-6.174-20.58 11.935-3.7 6.173 20.99c.823 2.88 2.47 4.94 4.939 4.12 3.292-.83 3.292-4.53 2.469-7.41l-5.761-20.17 11.934-3.7zm-209.48-1.65c-4.115 0-5.762 1.24-5.762 3.71h6.174l-.412.41v12.35h-12.758v-11.53c-.411-8.23 7.819-9.05 12.758-9.05zm-241.172-31.27-17.696 47.33-37.864-14 3.705-10.29 25.104 9.06 2.881-7.82-21.4-7.82 3.704-9.88 21.4 7.82 3.293-8.64-25.517-9.47v-.41l3.704-10.29zm512.791-9.06 28.39 21.82-14.4 6.58-15.23-12.76-.82 19.76-14.4 6.58 2.88-35.8-7.82-17.7.41-.41 13.17-5.76zm-51.438-.82c9.465-3.7 20.989-1.65 25.927 11.52 4.941 13.17-2.469 22.23-11.934 25.52-9.466 3.7-20.989 1.65-25.928-11.52s2.057-21.82 11.935-25.52m13.581 15.23c-.412-1.65-3.704-9.06-10.288-6.59-6.174 2.47-4.116 9.47-2.881 12.35.823 2.47 4.115 9.46 10.288 6.99 5.761-2.05 4.527-8.23 2.881-12.75m-566.301-44.45-8.643 16.87.823 35.81-13.993-7.41v-19.73c-.367.55-15.227 11.5-15.227 11.5l-13.992-7.41 30.043-19.75 8.389-16.38zm16.057 33.75c2.058-4.53 7.408-6.59 11.524-4.53 4.527 2.06 6.585 7.41 4.527 11.52-2.058 4.53-7.408 6.59-11.523 4.53-4.527-2.06-6.585-7-4.528-11.52m693.871-25.52-34.57 20.99-5.76-9.47 22.63-13.58-4.52-7.4-19.35 11.93-5.35-9.05 19.35-11.94-4.94-7.82-23.46 13.99-5.76-9.46 35.39-21.4zm-73.66.82c4.11-2.05 9.88-.82 11.93 3.71 2.47 4.52.41 9.88-3.7 11.93-4.12 2.06-9.88.83-11.94-3.7-2.47-4.53-.41-9.88 3.71-11.94m-703.756-25.92c6.996-11.94 18.519-11.94 27.162-6.59 8.642 5.35 14.404 15.23 6.996 27.16-7.408 11.94-18.931 11.94-27.573 6.59h.411c-8.643-5.35-14.404-15.23-6.996-27.16m797.166-35.81-3.7 36.22 18.52-13.17 6.58 9.46-33.75 23.87-6.58-9.46 3.7-36.22-20.16 13.99-6.59-9.46 35.4-24.69zm-774.943 36.63c-5.762-3.29-9.877 2.88-11.523 5.35-1.235 2.47-4.939 9.05.823 12.35l.411.41c5.35 3.29 9.466-1.65 11.524-5.76.823-1.24 4.938-8.65-1.235-12.35m-48.976-41.57-12.347 18.11c-1.646 2.47-2.058 5.35 0 6.59 2.469 1.64 4.939 0 6.997-2.47l12.346-17.7 10.289 7-12.347 18.1c-1.646 2.47-2.469 4.94 0 6.59 2.881 2.06 5.351 0 7.408-2.88l11.935-17.29 10.289 7-20.989 30.45-9.054-6.58-1.234.41 3.292-4.94c-6.585 4.12-11.935.41-12.758 0-5.35-3.7-4.116-9.05-3.704-10.7-1.647.83-6.997 3.71-12.758-.41-4.527-3.29-7.408-9.46-1.235-18.52l13.581-19.75zm81.641 51.12-.158-.09.411-.41zm807.308-48.65-10.7 8.64-34.57-10.28 19.35 22.63-10.7 8.64-32.11-39.09 10.71-8.65 34.56 10.29-19.34-22.63 10.7-8.64zm-931.754-30.04c2.881-.41 9.054-.82 15.639 4.94 8.23 6.58 11.523 18.1 3.293 27.98-7.408 9.06-18.932 10.7-27.986 2.88-14.404-11.52-4.939-25.1-1.646-30.45l21.4 17.28c4.527-5.76.823-9.87-.823-11.11-3.292-2.47-5.35-1.64-6.996-1.23l-9.877-7.82c2.058-1.24 3.704-2.06 6.996-2.47m-5.762 19.34c-.411 1.24-2.058 5.76 2.058 9.06 4.115 3.7 8.231.82 9.466 0l-11.524-9.47zm944.926 4.12-.41-.41.01-.02zm-18.52-53.92c7.82-7.4 19.76-13.58 31.69-.82l20.99 22.22-10.29 9.47-21.4-22.64c-4.94-5.35-11.11-1.64-13.17 0-2.06 2.06-6.17 7.82-.82 13.17l21.4 22.64-10.28 9.45-20.59-21.8c-12.76-13.58-4.11-25.1 2.47-31.69m-942.039 4.53-13.993 15.23c-4.527 4.94-1.646 7.82 0 9.05 2.058 2.06 6.173 3.29 9.877-.41l13.993-15.23 9.054 8.23-25.104 27.17-8.854-8.05 2.681-3.06c-2.881.41-7.408 1.23-12.758-3.71-1.235-1.23-9.877-9.05 0-19.75l16.05-17.7zm-15.027 35.99-.2.23v-.41zm-24.486-74.67c0-.39 8.027 7.98 8.965 8.96-.434 1.43-1.201 2.23-1.969 3.38 3.292 0 7.82 0 13.17 6.17 4.527 4.53 7.407 11.12.411 17.7-6.585 6.59-12.347 2.06-23.458-6.58-2.469-1.65-4.528-3.71-6.174-2.06-2.469 2.47 0 4.94 1.234 6.17 5.351 5.35 6.586 4.12 7.821 2.88l8.642 8.65c-3.292 2.46-9.877 7.81-22.635-5.36-6.174-6.17-10.701-14.4-3.705-21.4l15.639-14.81c.823-.82 1.647-2.06 1.235-3.7zm1019.002-4.53c11.11-12.35 25.11-9.47 35.39 0 13.59 12.34 11.94 27.16 3.3 37.04-12.35 13.58-25.93 6.17-29.22 4.53l9.05-10.29h.41c5.35 3.29 8.64 0 11.53-2.47 4.11-4.53 4.11-10.29-4.53-18.11-10.29-9.47-16.05-2.88-18.11-.82-2.06 2.05-4.53 5.35-1.23 11.52l5.35-6.17 7.4 6.58-14.4 16.05-20.17-18.52 6.18-7 3.7 2.89c0-2.47-.82-8.24 5.35-15.23m-1051.516 27.57-7.819 7-8.231-9.47 7.82-6.99zm42.802-2.06c-2.881-2.88-7.408-4.93-11.112-1.64l-1.235 1.23c2.058.83 2.058.83 5.762 3.3 3.704 2.88 5.762 4.11 7.82 2.46 2.057-1.64-.412-4.52-1.235-5.35m-12.759-24.69-27.573 24.28-8.232-9.46 27.575-24.28zm11.524 12.76c-.002 0-.032-.04-.088-.09.031-.11.061-.21.088-.32zm-32.92-35.81c6.584-5.35 11.935.83 15.227 4.53l-3.292 2.88c-2.881-3.29-4.527-3.7-6.585-2.47l4.115 4.53h-.823l-9.466 7.82-8.23-9.88zm1135.469-9.87-7.41 10.29-8.23-6.18 7.41-10.29zm-1173.746-42.39-3.704 3.29c2.469 0 8.231.82 13.581 8.64 9.466 13.58 3.704 26.75-7.819 34.57-15.227 10.7-29.22 5.76-36.628-4.94-10.7-15.22-.412-26.75 2.057-29.63l7.821 11.11h.822c-4.115 4.53-2.469 8.24 0 11.53 3.704 4.94 9.054 6.58 18.932 0 11.523-7.82 6.173-15.23 4.527-17.29s-4.116-5.76-11.112-3.7l4.527 6.58-8.231 5.77-12.346-17.7 22.224-15.64zm1119.006 25.93c-2.47 3.7-2.47 5.35-.82 6.99l3.7-4.94v.41l9.88 7.41-7.82 10.29-9.06-6.99c-6.58-4.94-2.05-11.94.83-15.64zm43.63 8.23-7.41 10.28-30.04-21.81 7.41-10.29zm-13.58-48.57c3.29-5.35 9.05-9.46 16.87-4.52 7.82 5.35 4.94 11.93-1.24 24.28-1.23 2.47-2.46 5.35-.41 6.58 2.88 1.65 4.94-1.23 5.77-2.47 4.11-6.17 2.46-6.99.82-8.23l6.58-10.29c2.88 2.47 9.88 8.23 0 23.05-4.94 7.41-11.93 13.58-20.16 8.23l-18.11-11.93c-1.24-.83-2.47-1.24-3.71-.41h-.82c0-.42 7.39-11.5 7.41-11.53v.41c1.65 0 2.47.41 4.12 1.24-.83-2.88-1.65-7.82 2.88-14.41m-1198.437-28.39c16.05-9.47 25.516 1.64 30.454 9.46 5.351 9.06 9.055 22.23-6.172 31.28l-26.34 15.64-6.996-11.94 26.751-16.05c6.584-3.7 3.703-10.7 2.468-12.75-1.234-2.47-6.172-7.41-12.345-3.71l-26.751 16.05-6.996-11.93-.412-.41zm1208.307 35.39c-2.05-1.23-4.11 1.23-4.94 2.47-2.05 3.29-3.29 8.23.83 11.11l1.23.82h.41c0-2.05.42-2.47 2.06-6.17 1.65-4.11 2.88-6.58.41-8.23m50.21-33.34-5.89 10.22-3.98-1.99c.82 2.47 2.88 7-.83 13.17-.82 1.24-6.58 11.94-19.34 4.53l-20.58-11.93 6.18-10.7 17.69 10.28c5.76 3.3 7.82.01 9.06-1.64 1.64-2.47 2.06-6.59-2.88-9.47l-17.7-10.29 6.17-10.7zm-5.76 10.29-.41.41.28-.48zm-1253.169-58.03-17.697 31.28 26.34-13.58 6.173 12.35-45.27 22.63-6.174-12.34 17.697-31.28-26.34 13.58-6.173-12.35 45.27-22.63zm1235.879 8.24c4.94-9.47 14.82-15.23 26.75-9.47 10.29 5.35 14.4 16.05 9.05 26.75-8.23 16.46-23.45 10.29-29.22 8.23l12.35-24.69c-6.58-3.29-9.88 1.23-10.7 3.29-1.65 3.7-.41 5.76.41 7.41l-5.76 11.11c-1.65-1.65-2.88-3.29-4.12-6.17-.82-2.47-2.88-8.65 1.24-16.46m19.75 17.69c1.65 0 6.18.82 8.65-4.11 2.47-4.94-.83-8.23-2.06-9.06zm-1263.453-41.98-10.7 4.53-34.57-11.52 8.642 20.99-10.7 4.52-15.639-38.27 10.7-4.528 34.159 11.528h.412l-9.466-22.639 10.7-4.528zm1309.143-31.274-4 10.015-4.64-1.784c5.35 5.763 3.29 11.523 2.47 12.763-2.47 6.17-7.82 5.76-9.88 5.76 1.24 1.23 4.94 5.76 2.06 12.75-2.06 4.94-7.82 9.47-17.7 5.36l-22.22-9.06 4.53-11.52 20.16 8.23c2.88 1.23 5.35.82 6.59-1.65 1.23-2.47-.83-4.94-4.12-6.17l-19.75-8.23 4.53-11.526 20.16 8.236c2.88 1.23 5.35 1.23 6.59-1.24 1.23-3.291-1.24-5.349-4.12-6.584l-19.34-7.819 4.53-11.523zm-3.29 10.289h-.82l.11-.274zM83.727 975.376l-48.152 16.051-12.758-38.275 10.7-3.704 8.231 25.105 8.232-2.469-6.997-21.401 9.877-3.292 6.996 21.4 8.643-2.881-8.643-25.928 10.7-3.704zm1299.263-23.458c3.29-9.466 11.52-17.285 25.1-13.17 13.58 4.527 15.64 15.639 12.76 25.105v.411c-3.29 9.877-11.93 17.286-25.1 12.758-13.17-4.115-15.64-15.638-12.76-25.104m20.99-.823c-1.65-.412-9.47-2.881-11.52 3.704-2.06 6.173 4.93 9.054 7.4 9.877s9.88 2.88 11.94-3.704v.411c2.06-5.762-3.71-8.642-7.82-10.288m42.8-32.101-19.34 3.704 14.81 12.758-4.11 15.228-25.93-24.694-18.42-4.912 3.6-13.607 18.52 4.938 34.99-8.642zm-1406.688-5.35c4.938-1.235 9.466 1.646 10.701 6.172 1.235 4.527-1.647 9.467-6.174 10.702-4.938 1.234-9.465-1.647-10.7-6.174s1.646-9.466 6.173-10.7m1353.698 7.434-.1.385v-.411zM35.16 869.607l18.533-3.627 2.867 14.328-18.932 3.704-27.574 23.046-2.881-15.639 15.64-11.935-18.932-4.938L1 858.906zm1384.86 4.94c.83-4.527 5.76-7.82 10.29-6.997 4.94.823 7.82 5.762 7 10.289-.83 4.527-5.35 7.819-10.29 6.996s-7.82-5.761-7-10.288M53.693 865.98l-.014-.077h.41zm-26.355-49.462c13.993-2.058 20.989 6.996 22.224 17.285 1.234 9.877-2.88 20.577-16.873 22.635s-20.99-7.408-22.224-17.286c-1.235-10.288 2.88-20.577 16.873-22.634m1437.542-.413-5.35 40.333-11.11-1.647 3.29-26.339-8.23-1.234-2.88 22.635-10.7-1.235 2.88-22.636-9.05-1.234-3.71 27.162.42.412-11.12-1.646 5.35-41.155zM40.097 835.037c-.824-6.585-8.232-6.173-11.113-5.762-2.88 0-10.288 2.059-9.053 8.232v.411c.823 6.173 7.408 6.173 11.523 5.762 1.647-.001 9.877-1.647 8.643-8.643m2.471-65.024-21.811 1.234c-3.293 0-5.35 1.647-5.35 4.116 0 2.881 2.88 4.115 6.173 3.703l21.4-1.234.824 12.347-21.813 1.234c-2.88 0-5.35 1.235-5.35 4.116 0 3.292 3.704 4.115 6.585 4.116l20.989-1.235.823 12.346-37.04 2.47-.822-11.113.41.412 5.763-.823c-7.408-2.469-7.82-9.054-7.82-10.289-.411-6.584 4.527-8.643 6.173-9.466-1.646-.823-6.995-3.292-7.407-10.288 0-5.35 2.88-11.935 13.581-12.346l23.87-1.647zm1387.332-6.997 25.93 25.515 1.65-22.635 11.52.824-2.47 41.155-11.52-.823-25.93-25.517h-.41l-1.65 24.694-11.52-.824 2.88-43.213zm38.69-39.097-29.22 20.577 29.63-.823v13.581l-50.21.823v-13.581h-.41l29.63-20.577-29.63.822V711.16l50.21-.823zM26.924 742.021c7.027-.195 7.82-5.391 7.82-7.814-.001-4.115-2.059-5.35-3.705-6.173v-12.758c2.47.823 4.116 1.647 6.174 3.704s6.173 6.585 6.173 15.227c0 10.7-6.996 20.166-19.754 20.166-11.524 0-19.755-8.231-19.755-20.166 0-18.519 16.462-19.342 23.047-19.754zm-8.643-14.767c-1.61.29-5.387 2.126-5.761 7.365 0 5.35 4.527 6.997 5.761 7.408zM5.936 684.82c0-1.646.823-13.58 15.227-12.757l23.87 1.645-.823 12.347-20.577-1.235c-6.585-.411-6.997 3.293-7.408 5.762 0 2.881 1.234 6.997 6.585 7.408l20.577 1.235-.824 12.346-37.039-2.469.824-12.347v.412h4.527c-2.058-1.646-5.351-4.939-4.94-12.347m1459.774-17.696-31.28 2.469c-7.41.823-8.23 7.819-7.82 10.289 0 2.881 2.06 9.466 9.47 9.055l31.28-2.47 1.23 13.993h-.41l-30.46 2.469c-18.52 1.646-22.22-12.759-23.04-21.813-.83-10.7 1.64-23.869 19.34-25.515l30.45-2.47zM10.468 645.313c1.234-8.643 4.527-17.286 14.404-16.051l21.4 2.881c1.235 0 2.881 0 3.705-1.235h.823l-1.647 13.17h-.41c-1.647.823-2.47.823-4.116.411 2.058 2.47 4.527 6.174 3.704 13.993-.823 6.174-4.116 12.758-13.17 11.524-9.466-1.235-9.466-8.644-9.466-22.225 0-2.88 0-5.761-2.468-6.173-3.293-.411-3.704 3.293-3.704 4.939-.824 7.408.823 7.408 2.88 7.819l-1.646 11.936c-3.704-.823-12.347-2.881-10.29-20.989m21.97-2.058c.662 1.723.665 2.346.665 6.173 0 4.527.412 7.407 3.292 7.819 2.47 0 2.882-3.291 3.293-4.526.412-4.116-.823-9.054-5.761-9.466zm1397.472-42.391c18.11-2.88 28.81 7.82 30.87 20.578 2.88 18.52-11.53 24.281-14.82 25.516l-2.06-13.581v-.823c5.76-2.058 5.76-6.584 4.94-10.288-.82-6.174-5.35-9.877-16.87-7.82-13.58 2.058-12.35 10.7-11.94 13.581s1.24 6.996 8.23 8.231l-1.23-8.231 9.88-1.646 3.29 21.4-27.16 4.528-1.65-9.054 4.53-1.235c-2.06-1.235-7-4.528-8.23-13.582-2.47-16.462 8.64-25.516 22.22-27.574M53.267 614.856l-2.058 12.347-36.216-6.174 2.058-12.345zm-39.92-6.585-2.058 12.347L1 618.972l2.058-12.347zm41.983-12.345c8.23 1.646 6.996 9.877 6.173 14.404l-4.115-.823c.823-4.115 0-5.761-2.47-6.584l-1.234 6.173v-.411l-12.347-2.47 2.47-12.758zm1357.29-18.931-11.12 2.881c-8.23 2.057-10.28-5.762-11.52-10.7l4.12-.823c1.23 4.115 2.47 5.35 4.94 4.938l-1.65-5.762v-.411l11.93-2.881zM43.804 516.908l-3.704 13.17-.412-.412c-6.173-.412-7.819 3.293-9.053 7.408-1.646 6.173.822 11.112 11.934 14.405 13.17 3.703 15.64-4.527 16.462-6.997.823-2.88 1.646-6.996-4.115-10.7l-2.47 7.82-9.465-2.881 6.173-20.578 26.34 7.408-2.47 9.054-4.527-.823c1.235 2.058 4.115 6.997 1.647 16.05-4.528 15.639-18.52 19.343-31.69 15.64-17.696-4.939-22.635-19.343-18.931-31.69 5.35-17.696 20.576-16.874 24.28-16.874m1386.506 34.571-35.39 9.876-3.29-12.346 35.39-9.877zm13.59-3.705-9.88 2.881-3.29-12.346 9.87-2.881zm-40.75-46.504c3.71-.824 12.35-2.881 18.11 14.404 2.88 8.231 3.3 17.697-6.17 20.989l-20.58 6.585c-1.23 0-2.47 1.234-2.88 2.469h-.82l-4.12-12.347c1.24-1.234 2.06-1.646 3.71-2.057-2.88-1.235-7-3.704-9.47-11.112-2.06-6.173-2.06-13.17 7-16.051 9.05-2.88 12.34 3.705 18.11 16.051 1.23 2.469 2.46 5.349 4.93 4.527 3.3-.824 2.06-4.527 1.65-6.173-2.47-6.997-4.12-6.585-5.76-5.762zm-4.52 20.166c-2.06-4.116-3.71-6.586-6.18-5.351-2.47.823-1.64 4.116-1.23 5.351 1.23 3.703 4.53 7.819 9.05 6.172h1.65l.41-.411c-1.23-1.646-1.65-2.058-3.7-5.761M75.49 468.346c17.285 6.584 14.816 20.988 11.524 29.631-3.704 9.877-11.523 20.989-28.397 14.816l-28.808-10.7 4.938-13.17 29.22 11.112c6.996 2.469 10.7-3.703 11.523-5.762.823-2.469 2.058-9.466-4.938-11.935l-29.22-11.111 4.938-13.17.412-.412zm1326.57-1.512-3.85 1.923c2.47.823 7 2.058 9.88 9.055.41 1.646 4.94 12.758-8.64 18.108l-22.23 8.643-4.52-11.524 19.34-7.408c6.17-2.469 4.94-6.174 4.11-8.232-1.23-2.88-4.11-5.76-9.05-3.703l-18.93 7.408-4.53-11.524 34.16-13.581zM116.232 427.19l-5.761 12.347-35.394 5.762 27.162 12.347-5.761 12.346-45.682-21.401 5.762-12.347 35.393-5.762-27.163-12.345 5.762-12.347zm1286.098 40.332-.27-.688.27-.135zm-40.74-44.859c10.7-4.938 21.4-1.234 26.75 9.466 7.82 16.462-6.17 24.693-11.94 27.985l-11.52-25.104c-6.58 3.292-4.94 8.231-4.12 10.7 1.65 3.704 4.12 4.116 5.77 4.116l5.35 11.524c-2.47 0-4.12-.001-7.41-.824-2.88-.823-8.23-3.292-11.94-11.112-4.52-9.877-2.47-21.401 9.06-26.751m18.93 13.582c-2.47-4.938-7-4.528-8.64-4.116l6.17 13.581.41-.411c1.24-.823 4.53-4.116 2.06-9.054m-26.34-63.791h1.65l-4.94 2.881c7.82-.823 10.7 4.527 11.52 5.762 3.29 5.761 0 9.877-1.65 11.112 1.65 0 7.82 0 11.12 6.173 2.88 4.938 2.47 11.935-7 17.285l-20.99 11.523-6.17-10.7 18.93-10.7c2.88-1.646 4.11-3.704 2.88-6.173s-4.53-2.469-7.41-.823l-18.52 10.289-6.17-10.701 18.93-10.7c2.47-1.647 4.53-3.293 2.88-5.762-1.64-2.881-4.94-2.058-7.82-.823l-18.52 10.289-6.17-10.7 32.1-18.109zm-1249.465-4.939 12.347 34.159 11.934-21.402 10.289 5.762-20.989 37.863-10.289-5.761-12.347-34.159-11.111 19.754-10.29-5.761 20.167-36.217zm26.339-41.155-14.405 22.224 6.997 4.527 12.346-18.931 9.054 5.761-12.347 18.932 7.82 4.939 14.507-22.568 9.363 6.106-22.635 34.57-42.39-27.574 22.224-34.158zm1178.676 8.232c11.52-7.82 22.22-2.469 27.57 5.762 5.77 8.642 6.18 20.165-5.35 27.573-11.52 7.819-21.81 2.881-27.57-5.762-5.35-8.231-6.17-19.754 5.35-27.573m19.75 11.111c-3.29-4.938-9.05-2.469-12.75 0-1.24.823-8.23 5.762-4.12 11.524 3.71 5.35 10.29 1.646 12.35 0 2.47-1.647 8.23-6.174 4.52-11.524m-1174.454-4.459-.103-.067.412-.412zm1162.934-49.043-9.05 17.285 19.34-3.704 9.47 12.758-35.39 4.939-15.23 11.524-8.64-11.524 15.22-11.523 14.82-32.513zM150.399 311.545c2.881-3.704 8.232-4.939 12.347-2.058h.411c4.116 2.881 4.939 8.642 1.647 12.346-2.881 4.115-8.643 4.939-12.347 2.059-4.115-2.881-4.527-8.643-2.058-12.347m43.208-34.159 14.816 12.346.411.413-9.465 11.111-14.816-12.347-35.394-6.996 10.289-12.347 18.932 4.939-7.819-18.108 10.288-12.346zm1074.143-4.939c3.7-3.292 9.47-2.469 12.35.824 3.29 3.703 2.88 9.465-1.24 12.346v.411c-3.7 3.293-9.46 2.881-12.34-1.234-3.3-3.704-2.88-9.466 1.23-12.347m9.88-29.22-7.82 7.819-18.52-19.343-6.17 5.762 15.63 16.462-7.81 7.408-15.64-16.462-6.59 6.585 18.73 19.544-7.62 7.618-28.8-29.632 36.62-34.981zm-1074.971-3.292c6.997-7.408 18.108-10.701 27.986-.824 10.288 9.466 7.819 20.577.412 28.397-6.997 7.408-18.109 10.7-28.398.823s-7.407-20.989-.411-28.396zm1046.981 31.277-.2-.21.2-.201zM222.002 248.577c-2.058-2.058-7.82-6.585-12.347-2.057-4.115 4.526 0 9.465 2.881 12.757 1.235 1.235 7.409 6.585 11.936 1.647 4.527-4.939-.412-10.289-2.47-12.347m29.221-55.971c4.115-3.704 11.112-4.938 18.108 2.881l16.051 17.697-9.055 8.231-14.815-16.051c-2.058-2.469-4.527-3.292-6.585-1.234s-1.235 4.938.823 7.407l14.404 15.64-9.054 8.23-14.816-16.051c-2.057-2.057-4.116-3.291-6.585-1.645-2.469 2.058-.823 5.35 1.235 7.819l13.993 15.639-9.054 8.231-24.693-27.163 8.23-7.407v-.412l4.116 4.116c-2.469-7.408 2.058-11.523 2.881-12.346 4.939-4.528 9.466-2.059 11.524-1.236-.412-1.646-2.058-7.407 3.292-12.346m991.427 14.817-7.82 8.642-35.8 4.116h.41l18.11 16.462-7.82 8.642-32.11-29.22 7.82-8.642 35.81-4.115-16.87-15.228 7.82-8.642zm-62.97-53.914-2.47 35.804 18.11-23.87 10.7 8.643-31.28 39.509-10.7-8.643 2.47-35.805-18.11 23.871-10.7-8.643 31.28-39.509zm-900.063 15.638c14.404-11.522 25.516.412 30.043 5.351l-21.2 17.123c4.471 5.428 9.289 2.613 10.911 1.397 3.292-2.47 2.881-4.939 2.47-6.585l9.877-7.82c.823 2.058 1.235 4.116.823 6.997 0 2.881-1.235 9.054-8.231 14.404-8.231 6.584-20.166 7.408-27.986-2.881-7.407-9.054-6.172-20.578 3.293-27.986m40.333-29.219c1.235-.823 11.113-7.82 19.344 4.115l13.581 19.755-10.289 6.996-11.935-16.873c-3.704-5.35-6.997-3.292-9.054-2.058-2.47 1.647-4.939 5.35-1.647 9.877l11.524 16.873-10.288 6.997-20.99-30.455 9.877-6.996.823-.412 2.881 3.704c0-2.881.412-7.408 6.173-11.523m-25.106 36.217c-1.235-.824-4.938-3.293-9.465 0-4.527 3.292-2.47 7.818-2.059 9.053zm838.736-55.972-17.28 25.928c-4.12 6.173.82 11.112 3.29 12.758 2.47 1.647 8.65 4.115 12.76-2.058l17.29-25.928 11.52 7.82-17.29 25.516c-10.29 15.227-23.87 9.466-31.27 4.527-8.65-5.761-17.7-16.05-7.82-30.866l17.28-25.516zm-779.88-2.469c7.408-4.527 16.463-7.408 21.813 1.234l11.111 18.521c.823 1.235 1.647 2.058 3.293 2.058v.823c.407.002-10.647 6.962-10.7 6.996h-.412c-1.235-.823-2.058-1.646-2.881-2.881-.412 3.292-2.058 7.408-8.643 11.524-5.35 3.292-12.346 4.938-17.285-3.292-4.939-7.82.823-12.759 11.524-21.402 2.057-2.058 4.527-3.704 3.292-5.762-1.646-2.88-4.939-.823-6.173 0-6.173 3.704-5.35 5.351-4.527 6.998l-10.289 6.172c-1.646-3.704-5.35-11.523 9.877-20.989m704.98-11.935c9.05-16.05 23.87-17.697 35.39-11.112 16.05 9.054 11.94 23.869 10.7 27.573l-11.93-6.584v-.412c2.06-5.761-1.65-8.642-4.94-10.289-5.35-3.292-11.11-2.057-16.87 8.232-7 11.935.82 16.461 3.29 17.696s6.58 3.293 11.52-1.234l-6.99-4.116 4.93-8.642 18.94 10.7-13.59 23.87-8.23-4.527 1.65-4.528c-2.47.824-7.82 2.47-16.05-2.057-14.4-8.231-14.82-22.636-7.82-34.57m-689.341 28.397c-1.235 1.646-1.646 2.058-4.527 4.938-3.292 3.293-5.35 4.94-4.116 7.409 1.235 2.057 4.528.411 5.351 0 3.292-2.058 6.584-6.174 4.115-10.289l-.823-1.235zm34.978-1.234-11.111 6.172-17.697-32.512 11.112-6.173zm16.061-9.878c3.704 7.408-3.293 11.524-7.408 13.993l-2.058-3.704c3.704-2.058 4.527-3.704 3.704-6.173l-5.349 2.88v-.411l-5.762-11.112 11.522-5.761zm609.502-18.109-4.94 10.289c-3.29 7.408-11.11 4.528-15.64 2.47l1.65-3.704c4.11 1.646 5.76 1.234 6.99-.823l-5.35-2.47 5.35-11.111zm-9.06-29.631-14.4 33.747-11.527-4.939 14.407-33.747zM445.883 55.972c17.285-6.997 26.339 5.35 28.397 8.23l-12.759 5.35.824-.411c-3.293-4.939-7.82-4.115-11.524-2.47-5.761 2.47-8.231 7.409-3.704 18.52 5.35 12.758 13.17 9.467 16.051 8.232s6.585-2.882 5.762-9.878l-7.409 3.293-3.703-9.055 19.754-8.23 10.289 25.104-8.642 3.704-2.47-4.115c-.823 2.47-2.47 7.82-11.523 11.524-15.227 6.172-26.751-2.47-32.101-15.228-6.996-16.874.823-29.632 12.758-34.57m-60.908 41.566-11.112 6.173-4.939-9.054 11.112-6.174zm579.052-33.335c1.647-3.292 5.762-11.523 22.635-4.938 8.231 2.88 16.048 8.642 12.347 17.696l-7.408 20.166a5.7 5.7 0 0 0 0 3.704v.823l-11.935-4.235c0-1.587.01-2.792.411-3.996-2.881 1.646-6.996 3.292-14.815 0-5.762-2.058-11.524-6.585-8.232-15.639 3.293-8.642 10.289-7.407 23.87-4.115 2.881.823 5.762 1.234 6.585-1.235 1.235-2.881-2.469-4.527-3.704-4.939-6.996-2.469-7.407-.823-8.23.823zm15.639 33.216v.12l-.823-.412zm-456.82-67.787 9.466 29.22c5.761 17.697-6.997 24.693-15.639 27.574-9.877 3.292-23.459 4.116-29.221-12.758l-9.466-29.22 13.17-4.527 9.877 29.632c2.47 6.996 9.466 6.172 11.936 5.35 2.469-.824 8.642-4.528 6.585-11.524l-9.878-29.632 13.17-4.526zm454.762 51.444c-4.527-.823-6.996-1.234-8.231 1.236-.823 2.469 2.469 3.703 3.704 4.115 3.704 1.234 9.054 1.234 10.7-3.292v-1.237c-1.722-.003-2.347-.057-6.173-.822m-40.743-37.04h.411l-1.234 4.527c2.469-1.646 6.174-4.115 13.17-2.057 1.647.412 13.169 4.116 8.642 17.696l-6.997 22.636-11.934-3.704 6.174-19.754c2.057-6.173-1.647-7.82-3.704-8.232-2.881-.823-6.997-.411-8.643 4.939l-6.174 19.343-11.934-3.704 10.7-35.393zM589.927 65.024l-13.17 3.293-26.751-24.282 7.408 28.809-13.17 3.293-11.934-48.975 13.169-3.293 26.75 24.282-7.408-28.808 13.17-3.293zm287.679-16.872c2.881-11.523 12.347-17.697 23.871-14.816 17.696 4.116 15.227 20.578 14.404 26.75l-26.751-6.584c-1.646 7.408 3.292 9.054 5.762 9.877 4.115.823 5.761-.823 6.996-2.058l12.346 2.881c-1.234 1.646-2.469 3.704-4.938 5.35-2.469 1.647-7.82 4.527-16.462 2.47-10.289-2.47-18.108-11.112-15.228-23.87m148.974 13.992-4.11 9.465-11.53-4.938 4.12-9.466zM834.393 20.578l.411.823-.823 5.762c4.116-6.585 10.701-5.762 11.524-5.35 6.584 1.234 7.408 6.173 7.819 8.23 1.235-1.645 4.527-6.172 11.935-4.937 5.35.823 10.701 5.35 9.054 16.05l-4.116 23.458-12.346-2.057 3.704-21.4c.411-3.293 0-5.763-2.881-6.175-2.881-.41-4.527 2.059-5.35 5.351l-3.704 20.99-12.347-2.06 3.705-21.81c.411-2.882-.001-5.352-2.881-6.175-3.293-.411-4.939 2.47-5.351 5.762l-3.292 20.578-12.347-2.058 6.173-36.628zm-205.37-2.058-18.931 30.867.411.41 24.282-4.114 2.058 11.523-42.802 6.996-2.058-11.523 18.932-30.867-22.636 3.705-2.057-11.524 40.743-6.997zm49.391-4.938-26.34 2.469.823 8.231 22.636-2.057 1.235 10.7-22.635 2.057.822 9.466 26.755-2.838 1.231 11.07-41.155 4.115-4.938-50.21L677.18 2.47zm97.946 20.166c1.235-13.992 11.935-18.93 21.812-17.696 10.289.823 19.343 7.819 18.108 21.4s-11.523 18.93-21.811 17.696c-9.877-.823-19.343-7.407-18.109-21.4M748.79 0c0 .412 7.819 18.52 7.819 18.52l9.465-17.285h16.051c-.01.428-18.47 31.195-18.52 31.278l-.823 18.931-.411.411h-14.404c0-.419.82-19.677.823-19.753L732.739 0zm151.04 41.979c-5.35-1.235-7.819 2.88-8.643 4.115l14.405 3.293c0-1.647-.412-6.174-5.762-7.409M797.35 25.516c-6.174-.412-7.82 5.762-8.232 9.878 0 1.646-.822 9.876 6.173 10.7 6.585.411 7.82-6.997 7.82-9.466 0-2.881.411-10.29-6.174-11.112zM681.71 41.61l-.004-.043h.412zm20.574-22.266c4.939 0 9.055 3.704 9.055 8.642 0 4.939-3.704 9.054-8.643 9.054-4.938 0-9.054-3.704-9.054-8.642 0-4.939 3.704-9.054 8.642-9.054"/></svg>