<svg xmlns="http://www.w3.org/2000/svg" width="1440" height="1316" fill="none" viewBox="0 0 1440 1316"><path fill="#10f" d="M511.918 875.737c-83.941-.015-169.049-25.322-231.254-57.348C138.34 745.154 50.869 614.224 50.866 468.25 50.724 209.662 356.548-.806 720.83.002 1085.11.657 1383.94 212.34 1387.93 470.936c3.74 242.991-208.34 377.854-466.265 469.733-226.335 80.641-288.052 237.481-205.884 370.021 1.924 3-1.842 4.91-5.225 3.83-85.417-28.38-168.735-155-122.376-283.28 23.716-65.827 84.793-128.506 164.17-181.309 87.522-58.322 226.302-140.601 239.231-254.264 13.769-121.579-107.054-237.049-297.078-244.349-188.487-7.297-311.196 85.699-322.46 152.168-4.75 28.125 8.1 51.442 29.478 66.859 21.608 15.494 52.744 22.244 79.566 12.382 22.211-8.181 36.501-22.142 36.876-39.437.524-24.213-26.314-44.944-61.061-49.011-3.998-.47-5.461-5.623-2.003-7.845 32.197-21.074 82.151-40.191 137.188-42.079 134.672-4.649 230.496 78.101 242.075 167.907 15.131 117.333-99.478 263.769-322.167 263.552z"/></svg>